G04 DipTrace 4.0.0.2*
G04 BottomMask.gbr*
%MOIN*%
G04 #@! TF.FileFunction,Soldermask,Bot*
G04 #@! TF.Part,Single*
%ADD23C,0.03937*%
%ADD53C,0.137795*%
%ADD66C,0.078*%
%ADD68R,0.078X0.078*%
%ADD74C,0.128*%
%ADD76R,0.128X0.128*%
%ADD78C,0.102488*%
%ADD80R,0.102488X0.102488*%
%ADD90C,0.208*%
%ADD96C,0.067055*%
%ADD98R,0.067055X0.067055*%
%FSLAX26Y26*%
G04*
G70*
G90*
G75*
G01*
G04 BotMask*
%LPD*%
D98*
X1756500Y1134157D3*
D96*
X1856500D3*
X1956500D3*
X2056500D3*
D98*
X3381500D3*
D96*
X3481500D3*
X3581500D3*
X3681500D3*
D98*
X4856500D3*
D96*
X4956500D3*
X5056500D3*
X5156500D3*
D98*
X444000Y2534157D3*
D96*
X544000D3*
X644000D3*
X744000D3*
X844000D3*
X944000D3*
X1044000D3*
X1144000D3*
X1244000D3*
X1344000D3*
X1444000D3*
X1544000D3*
X1644000D3*
X1744000D3*
X1844000D3*
X1944000D3*
X2044000D3*
X2144000D3*
X2244000D3*
D98*
X444000Y2434157D3*
D96*
X544000D3*
X644000D3*
X744000D3*
X844000D3*
X944000D3*
X1044000D3*
X1144000D3*
X1244000D3*
X1344000D3*
X1444000D3*
X1544000D3*
X1644000D3*
X1744000D3*
X1844000D3*
X1944000D3*
X2044000D3*
X2144000D3*
X2244000D3*
D98*
X444000Y1434157D3*
D96*
X544000D3*
X644000D3*
X744000D3*
X844000D3*
X944000D3*
X1044000D3*
X1144000D3*
X1244000D3*
X1344000D3*
X1444000D3*
X1544000D3*
X1644000D3*
X1744000D3*
X1844000D3*
X1944000D3*
X2044000D3*
X2144000D3*
X2244000D3*
D98*
X444000Y1534157D3*
D96*
X544000D3*
X644000D3*
X744000D3*
X844000D3*
X944000D3*
X1044000D3*
X1144000D3*
X1244000D3*
X1344000D3*
X1444000D3*
X1544000D3*
X1644000D3*
X1744000D3*
X1844000D3*
X1944000D3*
X2044000D3*
X2144000D3*
X2244000D3*
D98*
X1394000Y3684157D3*
D96*
Y3584157D3*
X1294000Y3684157D3*
Y3584157D3*
X1194000Y3684157D3*
Y3584157D3*
X1094000Y3684157D3*
Y3584157D3*
X994000Y3684157D3*
Y3584157D3*
D98*
X2969000Y1504316D3*
D96*
X2869000Y1504314D3*
X2769000Y1504311D3*
D90*
X5531795Y531795D3*
Y4193213D3*
X531795D3*
Y531795D3*
D98*
X1644005Y2734157D3*
D96*
X1544005D3*
X1444005D3*
X1344005D3*
X1244005D3*
X1144005D3*
X1044005D3*
X944005D3*
X844014D3*
X744014D3*
X644014D3*
X544014D3*
D53*
X601874Y3875890D3*
D98*
X2944005Y2734157D3*
D96*
X2844005D3*
X2744005D3*
X2644005D3*
X2544005D3*
X2444005D3*
X2344005D3*
X2244005D3*
X2144014D3*
X2044014D3*
X1944014D3*
X1844014D3*
D53*
X1901874Y3875890D3*
D98*
X4244005Y2734157D3*
D96*
X4144005D3*
X4044005D3*
X3944005D3*
X3844005D3*
X3744005D3*
X3644005D3*
X3544005D3*
X3444014D3*
X3344014D3*
X3244014D3*
X3144014D3*
D53*
X3201874Y3875890D3*
D98*
X5540406Y2734157D3*
D96*
X5440406D3*
X5340406D3*
X5240406D3*
X5140406D3*
X5040406D3*
X4940406D3*
X4840406D3*
X4740415D3*
X4640415D3*
X4540415D3*
X4440415D3*
D53*
X4498274Y3875890D3*
D98*
X4044000Y1434165D3*
D96*
Y1534165D3*
Y1634165D3*
Y1734165D3*
Y1834165D3*
Y1934165D3*
Y2034165D3*
Y2134165D3*
Y2234156D3*
Y2334156D3*
Y2434156D3*
Y2534156D3*
D53*
X5185732Y2476297D3*
D23*
X487898Y2175791D3*
Y1860831D3*
D80*
X787701Y689276D3*
D78*
X925496D3*
X1063291D3*
X1201087D3*
D80*
X1575102D3*
D78*
X1712898D3*
X1850693D3*
X1988488D3*
D80*
X2362504Y691559D3*
D78*
X2500299D3*
X2638094D3*
X2775890D3*
D76*
X5443999Y940407D3*
D74*
Y1137257D3*
D80*
X3149906Y691559D3*
D78*
X3287701D3*
X3425496D3*
X3563291D3*
D80*
X3937307D3*
D78*
X4075102D3*
X4212898D3*
X4350693D3*
D80*
X4724709D3*
D78*
X4862504D3*
X5000299D3*
X5138094D3*
D68*
X5169000Y3434157D3*
D66*
X5269000D3*
X5169000Y3534157D3*
X5269000D3*
X5169000Y3634157D3*
X5269000D3*
X5169000Y3734157D3*
X5269000D3*
X5169000Y3834157D3*
X5269000D3*
X5169000Y3934157D3*
X5269000D3*
M02*
