G04 DipTrace 4.0.0.2*
G04 BottomSilk.gbr*
%MOIN*%
G04 #@! TF.FileFunction,Legend,Bot*
G04 #@! TF.Part,Single*
%ADD26C,0.01*%
%ADD28C,0.003*%
%FSLAX26Y26*%
G04*
G70*
G90*
G75*
G01*
G04 BotSilk*
%LPD*%
G36*
X4060055Y3669213D2*
D1*
D1*
D1*
D1*
D1*
D1*
D1*
D1*
D1*
D1*
D1*
D1*
D1*
D1*
D1*
D1*
D1*
D1*
D1*
D1*
D1*
D1*
D1*
D1*
D1*
D1*
D1*
D1*
D1*
D1*
D1*
D1*
D1*
D1*
D1*
G37*
X3766413Y3674537D2*
D28*
Y3718026D1*
X3757667D1*
Y3713382D1*
X3757507D1*
G03X3752636Y3717240I-10348J-8059D01*
G01*
G03X3746185Y3718529I-6179J-14141D01*
G01*
G03X3741524Y3717689I12J-13422D01*
G01*
G03X3737097Y3715169I5924J-15555D01*
G01*
X3743411Y3707630D1*
G02X3746289Y3709245I6924J-8964D01*
G01*
G02X3749201Y3709781I2934J-7771D01*
G01*
G02X3755045Y3707622I11J-8960D01*
G01*
G02X3757012Y3704803I-4242J-5056D01*
G01*
G02X3757667Y3700673I-11128J-3881D01*
G01*
Y3674537D1*
X3766413D1*
X3896495Y3709781D2*
G02X3899282Y3709518I152J-13316D01*
G01*
G02X3901449Y3708723I-1466J-7342D01*
G01*
G02X3903923Y3705551I-2524J-4519D01*
G01*
G02X3905160Y3696332I-31554J-8928D01*
G01*
G02X3903923Y3686972I-33232J-368D01*
G01*
G02X3901449Y3683799I-4996J1344D01*
G01*
G02X3899282Y3683004I-3632J6547D01*
G01*
G02X3896495Y3682741I-2635J13053D01*
G01*
G02X3893753Y3683016I-150J12343D01*
G01*
G02X3891615Y3683840I1539J7178D01*
G01*
G02X3889167Y3687144I2797J4632D01*
G01*
G02X3887929Y3696332I32653J9075D01*
G01*
G02X3889167Y3705378I33398J39D01*
G01*
G02X3891615Y3708682I5245J-1328D01*
G01*
G02X3893753Y3709507I3677J-6354D01*
G01*
G02X3896495Y3709781I2592J-12069D01*
G01*
D3*
X3833948Y3674537D2*
X3843056Y3704957D1*
X3843218D1*
X3852304Y3674537D1*
X3860025D1*
X3873917Y3718026D1*
X3864668D1*
X3856325Y3687567D1*
X3856164D1*
X3846314Y3718026D1*
X3839937D1*
X3830108Y3687567D1*
X3829927D1*
X3821604Y3718026D1*
X3812336D1*
X3826247Y3674537D1*
X3833948D1*
X3952929Y3762185D2*
X3980013D1*
G02X3979285Y3757490I-13769J-268D01*
G01*
G02X3977097Y3754135I-7820J2710D01*
G01*
G02X3973781Y3752122I-6550J7052D01*
G01*
G02X3969659Y3751450I-3972J11385D01*
G01*
G02X3964568Y3752500I-79J12485D01*
G01*
G02X3960108Y3755652I5937J13134D01*
G01*
X3953777Y3750244D1*
G03X3957213Y3747008I15853J13389D01*
G01*
G03X3961052Y3744856I10151J13609D01*
G01*
G03X3969499Y3743248I8379J21029D01*
G01*
G03X3976088Y3744329I-8J20663D01*
G01*
G03X3982476Y3747579I-8283J24190D01*
G01*
G03X3985224Y3750312I-6387J9169D01*
G01*
G03X3987189Y3754181I-12648J8856D01*
G01*
G03X3988365Y3759185I-24445J8384D01*
G01*
G03X3988759Y3765322I-43499J5872D01*
G01*
G03X3988395Y3771185I-43460J249D01*
G01*
G03X3987310Y3776066I-26634J-3362D01*
G01*
G03X3985496Y3779966I-16442J-5274D01*
G01*
G03X3982959Y3782885I-10664J-6707D01*
G01*
G03X3977025Y3786526I-14321J-16680D01*
G01*
G03X3970825Y3787740I-6223J-15343D01*
G01*
G03X3964115Y3786499I-134J-18032D01*
G01*
G03X3958297Y3782774I7044J-17413D01*
G01*
G03X3954273Y3776945I10821J-11772D01*
G01*
G03X3952929Y3769383I18893J-7258D01*
G01*
Y3762185D1*
X4073906Y3765543D2*
G03X4073629Y3771650I-59844J346D01*
G01*
G03X4072808Y3775969I-21900J-1922D01*
G01*
G03X4069199Y3782172I-16008J-5161D01*
G01*
G03X4067064Y3784098I-11634J-10747D01*
G01*
G03X4064241Y3785940I-15012J-19930D01*
G01*
G03X4060593Y3787290I-6224J-11211D01*
G01*
G03X4055970Y3787740I-4407J-21296D01*
G01*
G03X4051404Y3787290I-218J-21169D01*
G01*
G03X4047757Y3785940I2629J-12699D01*
G01*
G03X4044915Y3784098I12332J-22153D01*
G01*
G03X4042760Y3782172I9474J-12765D01*
G01*
G03X4039161Y3775969I12309J-11285D01*
G01*
G03X4038348Y3771650I21463J-6280D01*
G01*
G03X4038077Y3765543I59069J-5674D01*
G01*
G03X4038348Y3759335I61251J-443D01*
G01*
G03X4039161Y3754978I22633J1972D01*
G01*
G03X4042760Y3748777I15897J5081D01*
G01*
G03X4044915Y3746828I11274J10300D01*
G01*
G03X4047757Y3745005I14028J18748D01*
G01*
G03X4051404Y3743686I6274J11646D01*
G01*
G03X4055970Y3743248I4372J21545D01*
G01*
G03X4060593Y3743686I239J22080D01*
G01*
G03X4064241Y3745005I-2571J12818D01*
G01*
G03X4067064Y3746828I-11060J20224D01*
G01*
G03X4069199Y3748777I-9156J12176D01*
G01*
G03X4072808Y3754978I-12388J11361D01*
G01*
G03X4073629Y3759335I-21176J6242D01*
G01*
G03X4073906Y3765543I-60474J5808D01*
G01*
D3*
X3843774D2*
G03X3843503Y3771650I-59838J397D01*
G01*
G03X3842680Y3775969I-22159J-1984D01*
G01*
G03X3839072Y3782172I-15984J-5145D01*
G01*
G03X3836937Y3784098I-11927J-11072D01*
G01*
G03X3834113Y3785940I-14931J-19816D01*
G01*
G03X3830462Y3787290I-6214J-11191D01*
G01*
G03X3825841Y3787740I-4400J-21227D01*
G01*
G03X3821274Y3787290I-217J-21192D01*
G01*
G03X3817630Y3785940I2641J-12721D01*
G01*
G03X3814787Y3784098I12332J-22153D01*
G01*
G03X3812633Y3782172I9474J-12765D01*
G01*
G03X3809031Y3775969I12310J-11293D01*
G01*
G03X3808218Y3771650I20951J-6183D01*
G01*
G03X3807945Y3765543I59069J-5700D01*
G01*
G03X3808218Y3759335I61253J-417D01*
G01*
G03X3809031Y3754978I22113J1875D01*
G01*
G03X3812633Y3748777I15901J5088D01*
G01*
G03X3814787Y3746828I11145J10158D01*
G01*
G03X3817630Y3745005I14028J18748D01*
G01*
G03X3821274Y3743686I6284J11668D01*
G01*
G03X3825841Y3743248I4372J21546D01*
G01*
G03X3830462Y3743686I243J22011D01*
G01*
G03X3834113Y3745005I-2587J12873D01*
G01*
G03X3836937Y3746828I-11437J20819D01*
G01*
G03X3839072Y3748777I-9156J12176D01*
G01*
G03X3842680Y3754978I-12366J11344D01*
G01*
G03X3843503Y3759335I-21431J6303D01*
G01*
G03X3843774Y3765543I-61493J5801D01*
G01*
D3*
X3962394Y3674375D2*
Y3678218D1*
X3962576D1*
G03X3966217Y3674961I6209J3277D01*
G01*
G03X3969209Y3674146I4883J12027D01*
G01*
G03X3973009Y3673873I3667J24458D01*
G01*
G03X3979329Y3674913I-126J20477D01*
G01*
G03X3983886Y3677715I-3819J11317D01*
G01*
G03X3986904Y3681921I-8146J9032D01*
G01*
G03X3987909Y3687144I-12227J5062D01*
G01*
G03X3987039Y3692154I-14014J146D01*
G01*
G03X3984430Y3696291I-11621J-4436D01*
G01*
G03X3980138Y3699071I-7924J-7533D01*
G01*
G03X3974176Y3700051I-5850J-16959D01*
G01*
X3962394D1*
Y3704655D1*
G02X3962924Y3707178I5461J170D01*
G01*
G02X3964545Y3708957I4024J-2040D01*
G01*
G02X3967264Y3709993I4088J-6637D01*
G01*
G02X3971080Y3710283I3232J-17269D01*
G01*
G02X3973845Y3710114I163J-20004D01*
G01*
G02X3976108Y3709602I-1543J-12076D01*
G01*
G02X3979083Y3706886I-2461J-5683D01*
G01*
X3985778Y3712154D1*
G03X3979778Y3716986I-12105J-8890D01*
G01*
G03X3975924Y3718152I-6857J-15702D01*
G01*
G03X3971504Y3718488I-3909J-22183D01*
G01*
G03X3964356Y3717753I-609J-29206D01*
G01*
G03X3958756Y3715392I3933J-17151D01*
G01*
G03X3955186Y3710923I5904J-8375D01*
G01*
G03X3954269Y3707827I13488J-5681D01*
G01*
G03X3953930Y3704152I21571J-3841D01*
G01*
Y3674375D1*
X3962394D1*
X3980013Y3769383D2*
X3961657D1*
G02X3962448Y3773714I14274J-367D01*
G01*
G02X3964420Y3776894I8334J-2968D01*
G01*
G02X3967304Y3778846I6150J-5977D01*
G01*
G02X3970825Y3779497I3423J-8667D01*
G01*
G02X3974392Y3778846I101J-9546D01*
G01*
G02X3977299Y3776894I-3221J-7935D01*
G01*
G02X3979265Y3773714I-6189J-6024D01*
G01*
G02X3980013Y3769383I-13170J-4505D01*
G01*
D3*
X3962394Y3689657D2*
Y3692854D1*
X3972589D1*
G02X3975844Y3692440I-226J-14752D01*
G01*
G02X3978156Y3691421I-1545J-6641D01*
G01*
G02X3979526Y3689795I-2321J-3346D01*
G01*
G02X3979948Y3687567I-4580J-2020D01*
G01*
G02X3979470Y3685535I-4393J-39D01*
G01*
G02X3978035Y3683786I-4948J2595D01*
G01*
G02X3975589Y3682505I-3846J4368D01*
G01*
G02X3971946Y3682077I-3375J13017D01*
G01*
G02X3967387Y3682364I-730J24838D01*
G01*
G02X3964406Y3683385I1125J8151D01*
G01*
G02X3963525Y3684289I1903J2734D01*
G01*
G02X3962898Y3685636I4595J2959D01*
G01*
G02X3962394Y3689657I13056J3678D01*
G01*
D3*
X3697961Y3756537D2*
X3691507Y3750747D1*
G03X3698282Y3745358I18106J15813D01*
G01*
G03X3702459Y3743776I8096J15065D01*
G01*
G03X3707148Y3743248I4558J19411D01*
G01*
G03X3714325Y3744528I98J20218D01*
G01*
G03X3720781Y3748374I-7964J20705D01*
G01*
G03X3723445Y3751362I-9089J10784D01*
G01*
G03X3725349Y3755205I-14381J9520D01*
G01*
G03X3726491Y3759898I-23431J8186D01*
G01*
G03X3726873Y3765442I-37090J5340D01*
G01*
G03X3726491Y3770991I-37475J208D01*
G01*
G03X3725349Y3775696I-24722J-3509D01*
G01*
G03X3723445Y3779551I-16729J-5864D01*
G01*
G03X3720781Y3782563I-11881J-7825D01*
G01*
G03X3714325Y3786446I-14475J-16755D01*
G01*
G03X3707148Y3787740I-7085J-18746D01*
G01*
G03X3702459Y3787207I-87J-20130D01*
G01*
G03X3698282Y3785610I3955J-16607D01*
G01*
G03X3691507Y3780201I11530J-21390D01*
G01*
X3697961Y3774451D1*
G02X3702022Y3777858I10117J-7937D01*
G01*
G02X3706806Y3778995I4711J-9192D01*
G01*
G02X3711760Y3778147I276J-13285D01*
G01*
G02X3715297Y3775606I-3161J-8132D01*
G01*
G02X3717417Y3771373I-8687J-6999D01*
G01*
G02X3718127Y3765442I-21669J-5602D01*
G01*
G02X3717417Y3759541I-22148J-329D01*
G01*
G02X3715297Y3755325I-10754J2769D01*
G01*
G02X3711760Y3752797I-6739J5687D01*
G01*
G02X3706806Y3751953I-4673J12472D01*
G01*
G02X3702001Y3753098I-79J10314D01*
G01*
G02X3697961Y3756537I6012J11159D01*
G01*
D3*
X4046782Y3765442D2*
G02X4046903Y3769484I57666J300D01*
G01*
G02X4047265Y3772119I15890J-842D01*
G01*
G02X4048933Y3775797I11043J-2792D01*
G01*
G02X4051839Y3778196I5846J-4122D01*
G01*
G02X4055970Y3778995I3910J-9133D01*
G01*
G02X4060131Y3778196I244J-9965D01*
G01*
G02X4063007Y3775797I-2823J-6307D01*
G01*
G02X4064696Y3772119I-8354J-6064D01*
G01*
G02X4065026Y3769510I-17314J-3520D01*
G01*
G02X4065138Y3765543I-63657J-3775D01*
G01*
G02X4065026Y3761467I-67355J-196D01*
G01*
G02X4064696Y3758808I-17397J814D01*
G01*
G02X4063007Y3755150I-9618J2221D01*
G01*
G02X4060131Y3752752I-5721J3938D01*
G01*
G02X4055970Y3751953I-3928J9221D01*
G01*
G02X4051839Y3752752I-232J9877D01*
G01*
G02X4048933Y3755150I2947J6530D01*
G01*
G02X4047265Y3758789I9069J6359D01*
G01*
G02X4046903Y3761417I15425J3465D01*
G01*
G02X4046782Y3765442I57092J3727D01*
G01*
D3*
X3816650D2*
G02X3816774Y3769484I58756J211D01*
G01*
G02X3817134Y3772119I16264J-877D01*
G01*
G02X3818804Y3775797I11186J-2864D01*
G01*
G02X3821709Y3778196I5867J-4145D01*
G01*
G02X3825841Y3778995I3910J-9134D01*
G01*
G02X3830003Y3778196I244J-9965D01*
G01*
G02X3832878Y3775797I-2867J-6359D01*
G01*
G02X3834567Y3772119I-8298J-6038D01*
G01*
G02X3834899Y3769510I-17085J-3500D01*
G01*
G02X3835009Y3765543I-59839J-3648D01*
G01*
G02X3834899Y3761467I-63319J-327D01*
G01*
G02X3834567Y3758808I-18079J907D01*
G01*
G02X3832878Y3755150I-9618J2221D01*
G01*
G02X3830003Y3752752I-5765J3991D01*
G01*
G02X3825841Y3751953I-3928J9221D01*
G01*
G02X3821709Y3752752I-233J9878D01*
G01*
G02X3818804Y3755150I2969J6554D01*
G01*
G02X3817134Y3758789I9071J6367D01*
G01*
G02X3816774Y3761417I15799J3500D01*
G01*
G02X3816650Y3765442I58170J3816D01*
G01*
D3*
X3945283Y3743751D2*
Y3787238D1*
X3936538D1*
Y3782593D1*
X3936377D1*
G03X3931507Y3786454I-10315J-8010D01*
G01*
G03X3925058Y3787740I-6181J-14184D01*
G01*
G03X3920080Y3786777I8J-13382D01*
G01*
G03X3915277Y3783890I6806J-16762D01*
G01*
G03X3911741Y3779157I7546J-9325D01*
G01*
G03X3910857Y3776130I13310J-5532D01*
G01*
G03X3910563Y3772660I19251J-3378D01*
G01*
Y3743751D1*
X3919308D1*
Y3769644D1*
G02X3919921Y3773567I11635J191D01*
G01*
G02X3921761Y3776522I7450J-2588D01*
G01*
G02X3924516Y3778377I5882J-5765D01*
G01*
G02X3927873Y3778995I3263J-8298D01*
G01*
G02X3931306Y3778377I124J-9154D01*
G01*
G02X3934085Y3776522I-3047J-7577D01*
G01*
G02X3935925Y3773567I-5611J-5543D01*
G01*
G02X3936538Y3769644I-11022J-3731D01*
G01*
Y3743751D1*
X3945283D1*
X3785164Y3674375D2*
Y3678218D1*
X3785345D1*
G03X3788984Y3674961I6222J3289D01*
G01*
G03X3791979Y3674146I4874J12002D01*
G01*
G03X3795780Y3673873I3660J24364D01*
G01*
G03X3802098Y3674913I-127J20478D01*
G01*
G03X3806657Y3677715I-3821J11327D01*
G01*
G03X3809673Y3681921I-8144J9023D01*
G01*
G03X3810678Y3687144I-12227J5062D01*
G01*
G03X3809807Y3692154I-14132J122D01*
G01*
G03X3807198Y3696291I-11573J-4406D01*
G01*
G03X3802907Y3699071I-7929J-7539D01*
G01*
G03X3796945Y3700051I-5853J-16974D01*
G01*
X3785164D1*
Y3704655D1*
G02X3785692Y3707178I5459J176D01*
G01*
G02X3787315Y3708957I3988J-2011D01*
G01*
G02X3790034Y3709993I4078J-6613D01*
G01*
G02X3793849Y3710283I3230J-17249D01*
G01*
G02X3796614Y3710114I163J-20004D01*
G01*
G02X3798875Y3709602I-1549J-12093D01*
G01*
G02X3801853Y3706886I-2462J-5689D01*
G01*
X3808547Y3712154D1*
G03X3802545Y3716986I-12109J-8898D01*
G01*
G03X3798693Y3718152I-6836J-15628D01*
G01*
G03X3794272Y3718488I-3911J-22206D01*
G01*
G03X3787122Y3717753I-608J-29226D01*
G01*
G03X3781525Y3715392I3919J-17106D01*
G01*
G03X3777955Y3710923I5945J-8408D01*
G01*
G03X3777039Y3707827I13010J-5533D01*
G01*
G03X3776698Y3704152I21211J-3823D01*
G01*
Y3674375D1*
X3785164D1*
X3700714Y3692974D2*
X3727795D1*
G02X3727067Y3688278I-13942J-242D01*
G01*
G02X3724882Y3684921I-7909J2758D01*
G01*
G02X3721563Y3682909I-6611J7162D01*
G01*
G02X3717444Y3682239I-3947J11258D01*
G01*
G02X3712350Y3683289I-76J12509D01*
G01*
G02X3707892Y3686441I5959J13157D01*
G01*
X3701559Y3681030D1*
G03X3704996Y3677795I15953J13506D01*
G01*
G03X3708836Y3675644I10141J13601D01*
G01*
G03X3717280Y3674034I8383J21016D01*
G01*
G03X3723873Y3675118I-33J20795D01*
G01*
G03X3730260Y3678367I-8269J24157D01*
G01*
G03X3733008Y3681101I-6387J9169D01*
G01*
G03X3734971Y3684970I-13025J9042D01*
G01*
G03X3736148Y3689974I-24571J8421D01*
G01*
G03X3736539Y3696110I-43465J5851D01*
G01*
G03X3736180Y3701972I-43743J259D01*
G01*
G03X3735091Y3706853I-26850J-3431D01*
G01*
G03X3733281Y3710753I-16503J-5287D01*
G01*
G03X3730741Y3713673I-10760J-6793D01*
G01*
G03X3724807Y3717315I-14414J-16833D01*
G01*
G03X3718606Y3718529I-6220J-15329D01*
G01*
G03X3711898Y3717287I-132J-18032D01*
G01*
G03X3706083Y3713563I7007J-17342D01*
G01*
G03X3702055Y3707731I10790J-11758D01*
G01*
G03X3700714Y3700172I18937J-7259D01*
G01*
Y3692974D1*
X3943780Y3674537D2*
Y3718026D1*
X3935034D1*
Y3713382D1*
X3934873D1*
G03X3930003Y3717240I-10330J-8036D01*
G01*
G03X3923554Y3718529I-6177J-14129D01*
G01*
G03X3918890Y3717689I9J-13422D01*
G01*
G03X3914467Y3715169I5880J-15461D01*
G01*
X3920780Y3707630D1*
G02X3923655Y3709245I6979J-9054D01*
G01*
G02X3926570Y3709781I2931J-7757D01*
G01*
G02X3932409Y3707622I14J-8940D01*
G01*
G02X3934379Y3704803I-4243J-5063D01*
G01*
G02X3935034Y3700673I-11048J-3869D01*
G01*
Y3674537D1*
X3943780D1*
X3727795Y3700172D2*
X3709440D1*
G02X3710231Y3704501I14311J-379D01*
G01*
G02X3712205Y3707682I8225J-2900D01*
G01*
G02X3715085Y3709633I6096J-5902D01*
G01*
G02X3718606Y3710283I3413J-8612D01*
G01*
G02X3722176Y3709633I126J-9422D01*
G01*
G02X3725081Y3707682I-3222J-7940D01*
G01*
G02X3727046Y3704501I-6226J-6042D01*
G01*
G02X3727795Y3700172I-13120J-4500D01*
G01*
D3*
X3785164Y3689657D2*
Y3692854D1*
X3795357D1*
G02X3798613Y3692440I-228J-14777D01*
G01*
G02X3800927Y3691421I-1564J-6690D01*
G01*
G02X3802295Y3689795I-2377J-3390D01*
G01*
G02X3802714Y3687567I-4532J-2005D01*
G01*
G02X3802239Y3685535I-4391J-45D01*
G01*
G02X3800806Y3683786I-5003J2637D01*
G01*
G02X3798356Y3682505I-3866J4411D01*
G01*
G02X3794714Y3682077I-3375J13015D01*
G01*
G02X3790154Y3682364I-732J24823D01*
G01*
G02X3787175Y3683385I1125J8138D01*
G01*
G02X3786295Y3684289I1884J2711D01*
G01*
G02X3785667Y3685636I4428J2886D01*
G01*
G02X3785164Y3689657I12999J3667D01*
G01*
D3*
X3799982Y3758325D2*
Y3787238D1*
X3791236D1*
Y3761301D1*
G02X3790625Y3757357I-11799J-189D01*
G01*
G02X3788786Y3754406I-7379J2548D01*
G01*
G02X3786005Y3752567I-5779J5718D01*
G01*
G02X3782572Y3751953I-3320J8654D01*
G01*
G02X3779215Y3752567I-98J8947D01*
G01*
G02X3776459Y3754406I3030J7527D01*
G01*
G02X3774619Y3757357I5560J5515D01*
G01*
G02X3774007Y3761301I11143J3751D01*
G01*
Y3787238D1*
X3765261D1*
Y3743751D1*
X3774007D1*
Y3748354D1*
X3774188D1*
G03X3779022Y3744524I10275J8002D01*
G01*
G03X3785407Y3743248I6116J13997D01*
G01*
G03X3790457Y3744205I0J13806D01*
G01*
G03X3795277Y3747076I-6641J16629D01*
G01*
G03X3798807Y3751804I-7514J9292D01*
G01*
G03X3799688Y3754840I-13193J5473D01*
G01*
G03X3799982Y3758325I-19129J3368D01*
G01*
D3*
X3755331Y3743751D2*
Y3787238D1*
X3746585D1*
Y3782593D1*
X3746425D1*
G03X3741554Y3786454I-10326J-8025D01*
G01*
G03X3735106Y3787740I-6183J-14195D01*
G01*
G03X3730441Y3786900I-6J-13342D01*
G01*
G03X3726020Y3784383I5808J-15343D01*
G01*
X3732332Y3776844D1*
G02X3735207Y3778457I7021J-9148D01*
G01*
G02X3738122Y3778995I2954J-7836D01*
G01*
G02X3743962Y3776833I1J-8967D01*
G01*
G02X3745930Y3774014I-4212J-5038D01*
G01*
G02X3746585Y3769886I-10968J-3856D01*
G01*
Y3743751D1*
X3755331D1*
X3887929Y3674537D2*
Y3679062D1*
G03X3893031Y3675291I11523J10257D01*
G01*
G03X3899169Y3674034I5988J13625D01*
G01*
G03X3902908Y3674427I115J16911D01*
G01*
G03X3906085Y3675602I-2682J12128D01*
G01*
G03X3910810Y3679643I-6635J12541D01*
G01*
G03X3913285Y3685113I-9814J7736D01*
G01*
G03X3913749Y3689496I-32405J5651D01*
G01*
G03X3913906Y3696332I-125305J6282D01*
G01*
G03X3913749Y3703083I-122313J548D01*
G01*
G03X3913285Y3707409I-32069J-1255D01*
G01*
G03X3910810Y3712879I-12570J-2393D01*
G01*
G03X3906085Y3716920I-11828J-9047D01*
G01*
G03X3902908Y3718125I-5886J-10731D01*
G01*
G03X3899169Y3718529I-3644J-16210D01*
G01*
G03X3893089Y3717101I-174J-12918D01*
G01*
G03X3887929Y3713382I10978J-20670D01*
G01*
Y3735577D1*
X3879182D1*
Y3674537D1*
X3887929D1*
X4012715Y3751953D2*
G02X4009937Y3752218I-120J13435D01*
G01*
G02X4007776Y3753010I1489J7404D01*
G01*
G02X4005302Y3756184I2549J4538D01*
G01*
G02X4004068Y3765442I31892J8961D01*
G01*
G02X4005302Y3774731I33312J302D01*
G01*
G02X4007776Y3777929I5050J-1350D01*
G01*
G02X4009937Y3778727I3586J-6387D01*
G01*
G02X4012715Y3778995I2626J-12705D01*
G01*
G02X4015482Y3778718I119J-12773D01*
G01*
G02X4017633Y3777894I-1477J-7073D01*
G01*
G02X4020083Y3774591I-2765J-4611D01*
G01*
G02X4021299Y3765442I-33083J-9054D01*
G01*
G02X4020083Y3756336I-33993J-93D01*
G01*
G02X4017633Y3753047I-5181J1303D01*
G01*
G02X4015482Y3752227I-3666J6383D01*
G01*
G02X4012715Y3751953I-2614J12281D01*
G01*
D3*
X3653112Y3762185D2*
X3680190D1*
G02X3679463Y3757490I-13811J-266D01*
G01*
G02X3677278Y3754135I-7816J2703D01*
G01*
G02X3673961Y3752122I-6544J7043D01*
G01*
G02X3669836Y3751450I-3974J11400D01*
G01*
G02X3664749Y3752500I-80J12461D01*
G01*
G02X3660289Y3755652I5937J13134D01*
G01*
X3653955Y3750244D1*
G03X3657394Y3747008I15860J13406D01*
G01*
G03X3661234Y3744856I10077J13478D01*
G01*
G03X3669678Y3743248I8379J21029D01*
G01*
G03X3676269Y3744329I-6J20663D01*
G01*
G03X3682655Y3747579I-8254J24120D01*
G01*
G03X3685404Y3750312I-6324J9110D01*
G01*
G03X3687367Y3754181I-12700J8877D01*
G01*
G03X3688547Y3759185I-24573J8435D01*
G01*
G03X3688938Y3765322I-44038J5887D01*
G01*
G03X3688576Y3771185I-43175J276D01*
G01*
G03X3687488Y3776066I-27227J-3508D01*
G01*
G03X3685673Y3779966I-16375J-5248D01*
G01*
G03X3683138Y3782885I-10568J-6620D01*
G01*
G03X3677203Y3786526I-14321J-16680D01*
G01*
G03X3671005Y3787740I-6220J-15329D01*
G01*
G03X3664293Y3786499I-129J-18071D01*
G01*
G03X3658478Y3782774I7074J-17447D01*
G01*
G03X3654454Y3776945I10785J-11747D01*
G01*
G03X3653112Y3769383I18858J-7248D01*
G01*
Y3762185D1*
X3886345Y3750988D2*
X3880234Y3757039D1*
G02X3873951Y3752846I-13738J13780D01*
G01*
G02X3866525Y3751450I-7246J18092D01*
G01*
G02X3863125Y3751803I-130J15298D01*
G01*
G02X3860371Y3752858I2110J9626D01*
G01*
G02X3858545Y3754606I2317J4249D01*
G01*
G02X3857938Y3757039I4153J2327D01*
G01*
G02X3858272Y3758731I4073J76D01*
G01*
G02X3859272Y3760005I3100J-1404D01*
G01*
G02X3860934Y3760862I3125J-4022D01*
G01*
G02X3863266Y3761301I3069J-9907D01*
G01*
X3870966Y3762025D1*
G03X3875911Y3763114I-1097J16750D01*
G01*
G03X3879930Y3765575I-4914J12540D01*
G01*
G03X3882604Y3769337I-6560J7492D01*
G01*
G03X3883492Y3774331I-12368J4776D01*
G01*
G03X3882331Y3780140I-13732J276D01*
G01*
G03X3878846Y3784343I-9756J-4544D01*
G01*
G03X3873635Y3786891I-9847J-13534D01*
G01*
G03X3867289Y3787740I-6115J-21560D01*
G01*
G03X3862000Y3787339I-181J-32644D01*
G01*
G03X3857525Y3786133I3509J-21925D01*
G01*
G03X3850238Y3781829I9602J-24583D01*
G01*
X3855646Y3775457D1*
G02X3861003Y3778361I16549J-24133D01*
G01*
G02X3867289Y3779497I6012J-15300D01*
G01*
G02X3870833Y3779125I279J-14384D01*
G01*
G02X3873108Y3778010I-1118J-5161D01*
G01*
G02X3874745Y3774251I-3229J-3643D01*
G01*
G02X3874442Y3772875I-3181J-20D01*
G01*
G02X3873529Y3771606I-4014J1926D01*
G01*
G02X3871789Y3770633I-2886J3116D01*
G01*
G02X3868996Y3770147I-3477J11723D01*
G01*
X3861798Y3769644D1*
G03X3858659Y3769210I1283J-20834D01*
G01*
G03X3856000Y3768370I2934J-13916D01*
G01*
G03X3852115Y3765474I3728J-9054D01*
G01*
G03X3849924Y3761406I10447J-8252D01*
G01*
G03X3849190Y3756617I14547J-4679D01*
G01*
G03X3850503Y3750937I12038J-210D01*
G01*
G03X3854429Y3746726I10147J5524D01*
G01*
G03X3860243Y3744117I10931J16575D01*
G01*
G03X3867206Y3743248I6705J25398D01*
G01*
G03X3877419Y3745182I179J26982D01*
G01*
G03X3886345Y3750988I-11035J26732D01*
G01*
D3*
X3680190Y3769383D2*
X3661836D1*
G02X3662629Y3773714I14277J-375D01*
G01*
G02X3664601Y3776894I8292J-2942D01*
G01*
G02X3667484Y3778846I6158J-5987D01*
G01*
G02X3671005Y3779497I3423J-8667D01*
G01*
G02X3674573Y3778846I97J-9572D01*
G01*
G02X3677479Y3776894I-3250J-7973D01*
G01*
G02X3679445Y3773714I-6189J-6024D01*
G01*
G02X3680190Y3769383I-13273J-4514D01*
G01*
D3*
X4030045Y3674537D2*
Y3787238D1*
X4021299D1*
Y3782675D1*
G03X4016207Y3786474I-11519J-10127D01*
G01*
G03X4010059Y3787740I-6004J-13589D01*
G01*
G03X4006353Y3787339I-130J-16099D01*
G01*
G03X4003193Y3786133I2744J-11934D01*
G01*
G03X3998419Y3782091I7463J-13655D01*
G01*
G03X3995966Y3776621I10504J-7995D01*
G01*
G03X3995483Y3772269I30846J-5626D01*
G01*
G03X3995323Y3765442I123193J-6304D01*
G01*
G03X3995483Y3758659I121754J-520D01*
G01*
G03X3995966Y3754306I31259J1265D01*
G01*
G03X3998419Y3748857I12695J2438D01*
G01*
G03X4003193Y3744816I11741J9032D01*
G01*
G03X4006353Y3743639I5788J10708D01*
G01*
G03X4010059Y3743248I3593J16298D01*
G01*
G03X4016161Y3744623I223J13236D01*
G01*
G03X4021299Y3748354I-9902J19038D01*
G01*
Y3713382D1*
X4021135D1*
G03X4016268Y3717240I-10362J-8073D01*
G01*
G03X4009818Y3718529I-6179J-14141D01*
G01*
G03X4004840Y3717564I23J-13445D01*
G01*
G03X4000038Y3714677I6839J-16811D01*
G01*
G03X3996501Y3709945I7554J-9333D01*
G01*
G03X3995619Y3706917I12917J-5405D01*
G01*
G03X3995323Y3703449I18616J-3339D01*
G01*
Y3674537D1*
X4004068D1*
Y3700433D1*
G02X4004680Y3704353I11663J188D01*
G01*
G02X4006521Y3707308I7472J-2604D01*
G01*
G02X4009274Y3709163I5832J-5687D01*
G01*
G02X4012633Y3709781I3241J-8176D01*
G01*
G02X4016067Y3709163I118J-9192D01*
G01*
G02X4018845Y3707308I-2980J-7473D01*
G01*
G02X4020686Y3704353I-5631J-5559D01*
G01*
G02X4021299Y3700433I-11095J-3743D01*
G01*
Y3674537D1*
X4030045D1*
X3844610Y3911138D2*
D26*
G02X3883080Y3911138I19235J41791D01*
G01*
G03X3882013Y3908432I876J-1909D01*
G01*
X3909591Y3840885D1*
G03X3912343Y3839736I1948J797D01*
G01*
X3927322Y3845942D1*
G02X3929307Y3845741I806J-1946D01*
G01*
X3962255Y3823451D1*
G03X3964919Y3823705I1179J1736D01*
G01*
X3993068Y3851854D1*
G03X3993322Y3854520I-1484J1486D01*
G01*
X3971031Y3887465D1*
G02X3970831Y3889448I1762J1180D01*
G01*
X3984383Y3922164D1*
G02X3985927Y3923425I1943J-803D01*
G01*
X4024983Y3930959D1*
G03X4026688Y3933022I-394J2062D01*
G01*
Y3972832D1*
G03X4024983Y3974898I-2099J4D01*
G01*
X3985927Y3982432D1*
G02X3984383Y3983692I395J2059D01*
G01*
X3970831Y4016407D1*
G02X3971031Y4018390I1963J803D01*
G01*
X3993322Y4051337D1*
G03X3993068Y4054003I-1738J1180D01*
G01*
X3964919Y4082152D1*
G03X3962255Y4082406I-1485J-1483D01*
G01*
X3929307Y4060115D1*
G02X3927322Y4059915I-1179J1746D01*
G01*
X3894609Y4073467D1*
G02X3893349Y4075010I799J1938D01*
G01*
X3885814Y4114068D1*
G03X3883749Y4115773I-2067J-401D01*
G01*
X3843941D1*
G03X3841877Y4114068I1J-2103D01*
G01*
X3834341Y4075010D1*
G02X3833081Y4073467I-2059J395D01*
G01*
X3800364Y4059915D1*
G02X3798383Y4060115I-804J1937D01*
G01*
X3765436Y4082406D1*
G03X3762769Y4082152I-1180J-1741D01*
G01*
X3734622Y4054003D1*
G03X3734367Y4051337I1481J-1486D01*
G01*
X3756657Y4018390D1*
G02X3756858Y4016407I-1740J-1178D01*
G01*
X3743308Y3983692D1*
G02X3741761Y3982432I-1945J808D01*
G01*
X3702705Y3974898D1*
G03X3701000Y3972832I401J-2067D01*
G01*
Y3933022D1*
G03X3702705Y3930959I2106J4D01*
G01*
X3741761Y3923425D1*
G02X3743308Y3922164I-402J-2073D01*
G01*
X3756858Y3889448D1*
G02X3756657Y3887465I-1941J-805D01*
G01*
X3734367Y3854520D1*
G03X3734622Y3851854I1736J-1179D01*
G01*
X3762769Y3823705D1*
G03X3765436Y3823451I1487J1488D01*
G01*
X3798383Y3845741D1*
G02X3800364Y3845942I1176J-1736D01*
G01*
X3815346Y3839736D1*
G03X3818097Y3840885I803J1944D01*
G01*
X3845675Y3908432D1*
G03X3844610Y3911138I-1941J799D01*
G01*
G36*
X2197690Y4257987D2*
Y4159956D1*
X2208320D1*
Y4257987D1*
X2197690D1*
G37*
G36*
X2227218D2*
Y4159956D1*
X2237848D1*
Y4257987D1*
X2227218D1*
G37*
G36*
X3005564D2*
Y4202475D1*
X3004312Y4201192D1*
X3003700Y4201384D1*
X3003202Y4202475D1*
X2993753Y4213105D1*
X2979580Y4228460D1*
X2977218Y4230822D1*
X2963044D1*
X2991391Y4202475D1*
Y4200113D1*
X2987848Y4196570D1*
X2973674Y4178853D1*
X2970131Y4174129D1*
X2960682Y4162318D1*
X2959501Y4159956D1*
X2973674D1*
X2974856Y4161137D1*
X2979580Y4167042D1*
X2993753Y4185940D1*
X2998478Y4191845D1*
X2998722Y4192647D1*
X2999791Y4193704D1*
X3000840Y4194208D1*
X3005564Y4189483D1*
Y4159956D1*
X3016194D1*
Y4257987D1*
X3005564D1*
G37*
G36*
X2578005Y4256806D2*
X2572100Y4255625D1*
X2567375Y4254444D1*
X2561470Y4252082D1*
X2556745Y4249719D1*
Y4234365D1*
X2563832Y4240271D1*
X2565013Y4241452D1*
X2569737Y4243814D1*
X2573281Y4244995D1*
X2582730Y4247357D1*
X2587454D1*
X2592178Y4246176D1*
X2595722Y4244995D1*
X2600446Y4242633D1*
X2601627Y4241452D1*
X2603989Y4240271D1*
X2607533Y4236727D1*
Y4235546D1*
X2609895Y4232003D1*
X2611076Y4229641D1*
X2613438Y4222554D1*
X2614619Y4216648D1*
X2615800Y4215467D1*
Y4198932D1*
X2614619Y4197751D1*
X2613438Y4191845D1*
X2612257Y4187121D1*
X2609895Y4182397D1*
X2607533Y4178853D1*
Y4177672D1*
X2602808Y4172948D1*
X2595722Y4169404D1*
X2592178Y4168223D1*
X2587454Y4167042D1*
X2582730D1*
X2573281Y4169404D1*
X2569737Y4170585D1*
X2565013Y4172948D1*
X2563832Y4174129D1*
X2556745Y4180034D1*
Y4165861D1*
X2557926Y4164680D1*
X2565013Y4161137D1*
X2572100Y4158774D1*
X2578005Y4157593D1*
X2592178D1*
X2598084Y4158774D1*
X2601627Y4159956D1*
X2608714Y4163499D1*
X2613438Y4167042D1*
X2615800Y4169404D1*
X2619344Y4174129D1*
X2621706Y4177672D1*
X2622887Y4181215D1*
X2624068Y4183578D1*
X2626430Y4190664D1*
X2627611Y4197751D1*
Y4216648D1*
X2626430Y4222554D1*
X2625249Y4227278D1*
X2624068Y4230822D1*
X2620525Y4237908D1*
X2618163Y4241452D1*
X2609895Y4249719D1*
X2606352Y4252082D1*
X2603989Y4253263D1*
X2596903Y4255625D1*
X2592178Y4256806D1*
X2578005D1*
G37*
G36*
X2698478D2*
X2692572Y4255625D1*
X2687848Y4254444D1*
X2681942Y4252082D1*
X2677218Y4249719D1*
Y4234365D1*
X2684304Y4240271D1*
X2685485Y4241452D1*
X2690210Y4243814D1*
X2693753Y4244995D1*
X2703202Y4247357D1*
X2707926D1*
X2712651Y4246176D1*
X2716194Y4244995D1*
X2720919Y4242633D1*
X2722100Y4241452D1*
X2724462Y4240271D1*
X2728005Y4236727D1*
Y4235546D1*
X2730367Y4232003D1*
X2731548Y4229641D1*
X2733911Y4222554D1*
X2735092Y4216648D1*
X2736273Y4215467D1*
Y4198932D1*
X2735092Y4197751D1*
X2733911Y4191845D1*
X2732730Y4187121D1*
X2730367Y4182397D1*
X2728005Y4178853D1*
Y4177672D1*
X2723281Y4172948D1*
X2716194Y4169404D1*
X2712651Y4168223D1*
X2707926Y4167042D1*
X2703202D1*
X2693753Y4169404D1*
X2690210Y4170585D1*
X2685485Y4172948D1*
X2684304Y4174129D1*
X2677218Y4180034D1*
Y4165861D1*
X2678399Y4164680D1*
X2685485Y4161137D1*
X2692572Y4158774D1*
X2698478Y4157593D1*
X2712651D1*
X2718556Y4158774D1*
X2722100Y4159956D1*
X2729186Y4163499D1*
X2733911Y4167042D1*
X2736273Y4169404D1*
X2739816Y4174129D1*
X2742178Y4177672D1*
X2743359Y4181215D1*
X2744541Y4183578D1*
X2746903Y4190664D1*
X2748084Y4197751D1*
Y4216648D1*
X2746903Y4222554D1*
X2745722Y4227278D1*
X2744541Y4230822D1*
X2740997Y4237908D1*
X2738635Y4241452D1*
X2730367Y4249719D1*
X2726824Y4252082D1*
X2724462Y4253263D1*
X2717375Y4255625D1*
X2712651Y4256806D1*
X2698478D1*
G37*
G36*
X2865013D2*
X2859107Y4255625D1*
X2854383Y4254444D1*
X2848478Y4252082D1*
X2843753Y4249719D1*
Y4234365D1*
X2850840Y4240271D1*
X2852021Y4241452D1*
X2856745Y4243814D1*
X2860289Y4244995D1*
X2869737Y4247357D1*
X2874462D1*
X2879186Y4246176D1*
X2882730Y4244995D1*
X2887454Y4242633D1*
X2888635Y4241452D1*
X2890997Y4240271D1*
X2894541Y4236727D1*
Y4235546D1*
X2896903Y4232003D1*
X2898084Y4229641D1*
X2900446Y4222554D1*
X2901627Y4216648D1*
X2902808Y4215467D1*
Y4198932D1*
X2901627Y4197751D1*
X2900446Y4191845D1*
X2899265Y4187121D1*
X2896903Y4182397D1*
X2894541Y4178853D1*
Y4177672D1*
X2889816Y4172948D1*
X2882730Y4169404D1*
X2879186Y4168223D1*
X2874462Y4167042D1*
X2869737D1*
X2860289Y4169404D1*
X2856745Y4170585D1*
X2852021Y4172948D1*
X2850840Y4174129D1*
X2843753Y4180034D1*
Y4165861D1*
X2844934Y4164680D1*
X2852021Y4161137D1*
X2859107Y4158774D1*
X2865013Y4157593D1*
X2879186D1*
X2885092Y4158774D1*
X2888635Y4159956D1*
X2895722Y4163499D1*
X2900446Y4167042D1*
X2902808Y4169404D1*
X2906352Y4174129D1*
X2908714Y4177672D1*
X2909895Y4181215D1*
X2911076Y4183578D1*
X2913438Y4190664D1*
X2914619Y4197751D1*
Y4216648D1*
X2913438Y4222554D1*
X2912257Y4227278D1*
X2911076Y4230822D1*
X2907533Y4237908D1*
X2905170Y4241452D1*
X2896903Y4249719D1*
X2893359Y4252082D1*
X2890997Y4253263D1*
X2883911Y4255625D1*
X2879186Y4256806D1*
X2865013D1*
G37*
G36*
X3284304Y4209562D2*
X3283123Y4208381D1*
X3280761Y4203656D1*
X3279580Y4200113D1*
X3278399Y4193026D1*
Y4188302D1*
X3279580Y4181215D1*
X3281942Y4174129D1*
X3283123Y4171767D1*
X3285485Y4168223D1*
X3290210Y4163499D1*
X3293753Y4161137D1*
X3298478Y4158774D1*
X3303202Y4157593D1*
X3313832D1*
X3318556Y4158774D1*
X3325643Y4162318D1*
X3331548Y4168223D1*
X3333911Y4171767D1*
X3336273Y4176491D1*
X3337454Y4180034D1*
X3338635Y4184759D1*
X3339816Y4191845D1*
Y4210743D1*
X3338635Y4219011D1*
X3337454Y4224916D1*
X3335092Y4232003D1*
X3331548Y4239089D1*
X3329186Y4242633D1*
X3322100Y4249719D1*
X3316194Y4253263D1*
X3309107Y4255625D1*
X3304383Y4256806D1*
X3290210D1*
X3286667Y4255625D1*
Y4244995D1*
X3287848D1*
X3291391Y4246176D1*
X3296115Y4247357D1*
X3300840D1*
X3310289Y4244995D1*
X3312651Y4243814D1*
X3313832Y4242633D1*
X3316194Y4241452D1*
X3320919Y4236727D1*
Y4235546D1*
X3323281Y4232003D1*
X3325643Y4224916D1*
X3326824Y4217830D1*
X3327718Y4216241D1*
X3327567Y4215161D1*
X3326327Y4214193D1*
X3325246Y4214380D1*
X3324462Y4215467D1*
X3317375Y4219011D1*
X3312651Y4220192D1*
X3300840D1*
X3296115Y4219011D1*
X3291391Y4216648D1*
X3287848Y4214286D1*
X3285485Y4211924D1*
X3284304Y4209562D1*
X3303202D1*
X3307533Y4210743D1*
X3311863D1*
X3316194Y4209562D1*
X3320919Y4208381D1*
X3328005Y4204837D1*
Y4189483D1*
X3326824Y4188302D1*
X3325643Y4182397D1*
X3324462Y4178853D1*
X3323281Y4176491D1*
Y4175310D1*
X3318556Y4170585D1*
X3313832Y4168223D1*
X3310289Y4167042D1*
X3306745D1*
X3299659Y4169404D1*
X3292572Y4176491D1*
Y4178853D1*
X3291391Y4183578D1*
X3290210Y4184759D1*
Y4194208D1*
X3291391Y4195389D1*
X3292572Y4200113D1*
X3293753Y4202475D1*
Y4203656D1*
X3297296Y4207200D1*
X3299659Y4208381D1*
X3303202Y4209562D1*
X3284304D1*
G37*
G36*
X1765407Y4254444D2*
Y4169404D1*
X1748871Y4168223D1*
Y4159956D1*
X1793753D1*
Y4168223D1*
X1777218Y4169404D1*
Y4233184D1*
X1793753Y4234365D1*
Y4241452D1*
X1785485Y4242633D1*
X1781942Y4243814D1*
X1777218Y4246176D1*
Y4247357D1*
X1774856Y4254444D1*
X1765407D1*
G37*
G36*
X1909501D2*
Y4169404D1*
X1892966Y4168223D1*
Y4159956D1*
X1937848D1*
Y4168223D1*
X1921312Y4169404D1*
Y4233184D1*
X1937848Y4234365D1*
Y4241452D1*
X1929580Y4242633D1*
X1926037Y4243814D1*
X1921312Y4246176D1*
Y4247357D1*
X1918950Y4254444D1*
X1909501D1*
G37*
G36*
X1953202D2*
X1954383Y4253263D1*
Y4250900D1*
X1955564Y4248538D1*
X1970919Y4202475D1*
X1972100Y4200113D1*
X1985092Y4161137D1*
X1986273Y4159956D1*
X1999265D1*
X2013438Y4202475D1*
X2014619Y4204837D1*
X2029974Y4250900D1*
X2031155Y4253263D1*
Y4254444D1*
X2018163D1*
X1998084Y4194208D1*
X1996903Y4189483D1*
X1993359Y4178853D1*
X1993060Y4177460D1*
X1992109Y4176382D1*
X1991498Y4176581D1*
X1990997Y4177672D1*
X1983911Y4198932D1*
X1982730Y4203656D1*
X1966194Y4253263D1*
X1965013Y4254444D1*
X1953202D1*
G37*
G36*
X2763438D2*
Y4159956D1*
X2776430D1*
X2777611Y4161137D1*
X2805958Y4217830D1*
X2808320Y4221373D1*
X2817183Y4239082D1*
X2817823Y4240173D1*
X2818661Y4241010D1*
X2819264Y4240955D1*
X2820131Y4240271D1*
Y4159956D1*
X2829580D1*
Y4254444D1*
X2813044D1*
X2805958Y4240271D1*
X2803596Y4236727D1*
X2776430Y4182397D1*
X2776130Y4181003D1*
X2775180Y4179925D1*
X2774569Y4180124D1*
X2774068Y4181215D1*
Y4254444D1*
X2763438D1*
G37*
G36*
X3163832Y4243814D2*
X3161470Y4241452D1*
X3159107Y4236727D1*
X3157926Y4233184D1*
Y4219011D1*
X3159107Y4215467D1*
X3162651Y4208381D1*
X3169737Y4201294D1*
X3176824Y4197751D1*
X3180367Y4196570D1*
X3185092Y4195389D1*
X3205170Y4194208D1*
Y4159956D1*
X3215800D1*
Y4254444D1*
X3183911D1*
X3178005Y4253263D1*
X3174462Y4252082D1*
X3169737Y4249719D1*
X3165013Y4246176D1*
X3163832Y4244995D1*
Y4243814D1*
X3183911D1*
X3190997Y4244995D1*
X3198084D1*
X3205170Y4243814D1*
Y4206019D1*
X3198871Y4204837D1*
X3192572D1*
X3186273Y4206019D1*
X3181548Y4207200D1*
X3178005Y4208381D1*
X3172100Y4214286D1*
Y4215467D1*
X3170919Y4219011D1*
X3169737Y4220192D1*
Y4232003D1*
X3170919Y4233184D1*
X3172100Y4235546D1*
Y4236727D1*
X3175643Y4240271D1*
X3180367Y4242633D1*
X3183911Y4243814D1*
X3163832D1*
G37*
G36*
X2389029Y4250900D2*
Y4232003D1*
X2366588Y4230822D1*
Y4221373D1*
X2389029Y4220192D1*
Y4180034D1*
X2387848Y4178853D1*
Y4174129D1*
X2384304Y4170585D1*
X2381942Y4169404D1*
X2378005Y4168223D1*
X2374068D1*
X2370131Y4169404D1*
X2366588Y4170585D1*
Y4161137D1*
X2367769Y4159956D1*
X2373674Y4158774D1*
X2384304D1*
X2387848Y4159956D1*
X2392572Y4162318D1*
X2394934Y4164680D1*
X2397296Y4168223D1*
X2398478Y4171767D1*
X2399659Y4177672D1*
Y4220192D1*
X2407926Y4221373D1*
Y4230822D1*
X2399659Y4232003D1*
Y4250900D1*
X2389029D1*
G37*
G36*
X1818556Y4221373D2*
X1818168Y4219940D1*
X1817375Y4219011D1*
X1816194Y4216648D1*
X1815013Y4213105D1*
X1813832Y4207200D1*
Y4188302D1*
X1815013Y4182397D1*
X1816194Y4178853D1*
X1819737Y4171767D1*
X1822100Y4168223D1*
X1825643Y4164680D1*
X1829186Y4162318D1*
X1833911Y4159956D1*
X1837454Y4158774D1*
X1849265D1*
X1856352Y4161137D1*
X1858714Y4162318D1*
X1859596Y4163076D1*
X1860208Y4163007D1*
X1861076Y4162318D1*
Y4133971D1*
X1871706D1*
Y4230822D1*
X1861076D1*
Y4224916D1*
X1859824Y4223633D1*
X1859212Y4223825D1*
X1858714Y4224916D1*
X1856352Y4227278D1*
X1852808Y4229641D1*
X1848084Y4232003D1*
X1843359Y4233184D1*
X1833911D1*
X1830367Y4232003D1*
X1825643Y4229641D1*
X1819737Y4223735D1*
X1818556Y4221373D1*
X1836273D1*
X1840210Y4222554D1*
X1844147D1*
X1848084Y4221373D1*
X1851627Y4220192D1*
X1856352Y4217830D1*
X1858714Y4215467D1*
X1861076Y4214286D1*
Y4172948D1*
X1856352Y4170585D1*
X1852808Y4169404D1*
X1848084Y4168223D1*
X1843359D1*
X1838635Y4169404D1*
X1833911Y4171767D1*
X1828005Y4177672D1*
Y4178853D1*
X1826824Y4182397D1*
X1825643Y4188302D1*
X1824462Y4189483D1*
Y4202475D1*
X1825643Y4203656D1*
X1826824Y4209562D1*
X1828005Y4213105D1*
X1829186Y4215467D1*
Y4216648D1*
X1831548Y4219011D1*
X1836273Y4221373D1*
X1818556D1*
G37*
G36*
X2130367Y4223735D2*
X2128005Y4221373D1*
X2126824Y4219011D1*
X2124462Y4211924D1*
Y4195389D1*
X2172887Y4194208D1*
Y4185940D1*
X2171706Y4184759D1*
X2170525Y4181215D1*
X2169344Y4178853D1*
Y4177672D1*
X2164619Y4172948D1*
X2159895Y4170585D1*
X2156352Y4169404D1*
X2151627Y4168223D1*
X2146903D1*
X2137454Y4170585D1*
X2133911Y4171767D1*
X2126824Y4175310D1*
X2125643Y4176491D1*
Y4164680D1*
X2126824Y4163499D1*
X2132730Y4161137D1*
X2142178Y4158774D1*
X2156352D1*
X2161076Y4159956D1*
X2164619Y4161137D1*
X2169344Y4163499D1*
X2172887Y4165861D1*
X2177611Y4170585D1*
X2182336Y4180034D1*
X2183517Y4184759D1*
X2184698Y4194208D1*
Y4196570D1*
X2183517Y4207200D1*
X2181155Y4214286D1*
X2178793Y4219011D1*
X2175249Y4223735D1*
X2172887Y4226097D1*
X2165800Y4230822D1*
X2162257Y4232003D1*
X2157533Y4233184D1*
X2145722D1*
X2140997Y4232003D1*
X2136273Y4229641D1*
X2130367Y4223735D1*
X2145722D1*
X2150052Y4224916D1*
X2154383D1*
X2158714Y4223735D1*
X2162257Y4222554D1*
X2164619Y4221373D1*
X2169344Y4216648D1*
Y4215467D1*
X2171706Y4210743D1*
X2172887Y4209562D1*
Y4204837D1*
X2159895Y4203656D1*
X2146903D1*
X2133911Y4204837D1*
X2134140Y4205675D1*
X2135092Y4207200D1*
X2136273Y4214286D1*
X2137454Y4216648D1*
Y4217830D1*
X2140997Y4221373D1*
X2145722Y4223735D1*
X2130367D1*
G37*
G36*
X2259107Y4222554D2*
Y4221373D1*
X2256745Y4219011D1*
X2254383Y4214286D1*
X2253202Y4210743D1*
X2252021Y4204837D1*
Y4185940D1*
X2253202Y4180034D1*
X2254383Y4176491D1*
X2256745Y4171767D1*
X2259107Y4168223D1*
X2263832Y4163499D1*
X2267375Y4161137D1*
X2272100Y4158774D1*
X2276824Y4157593D1*
X2288635D1*
X2293359Y4158774D1*
X2300446Y4162318D1*
X2307533Y4169404D1*
X2312257Y4178853D1*
X2313438Y4183578D1*
Y4207200D1*
X2312257Y4211924D1*
X2307533Y4221373D1*
X2300446Y4228460D1*
X2293359Y4232003D1*
X2288635Y4233184D1*
X2276824D1*
X2272100Y4232003D1*
X2267375Y4229641D1*
X2263832Y4227278D1*
X2259107Y4222554D1*
X2276824D1*
X2280761Y4223735D1*
X2284698D1*
X2288635Y4222554D1*
X2292178Y4221373D1*
X2294541Y4220192D1*
X2298084Y4216648D1*
Y4215467D1*
X2300446Y4210743D1*
X2301627Y4206019D1*
X2302808Y4204837D1*
Y4185940D1*
X2301627Y4184759D1*
X2300446Y4180034D1*
X2298084Y4175310D1*
Y4174129D1*
X2295722Y4171767D1*
X2293359Y4170585D1*
X2292178Y4169404D1*
X2288635Y4168223D1*
X2284698Y4167042D1*
X2280761D1*
X2276824Y4168223D1*
X2272100Y4170585D1*
X2266194Y4176491D1*
Y4177672D1*
X2265013Y4181215D1*
X2263832Y4188302D1*
X2262651Y4189483D1*
Y4201294D1*
X2263832Y4202475D1*
X2265013Y4209562D1*
X2266194Y4213105D1*
Y4214286D1*
X2273281Y4221373D1*
X2276824Y4222554D1*
X2259107D1*
G37*
G36*
X2435092Y4233184D2*
X2431548Y4232003D1*
X2426824Y4229641D1*
X2423281Y4226097D1*
X2420919Y4222554D1*
X2418556Y4215467D1*
Y4159956D1*
X2429186D1*
X2430367Y4213105D1*
X2431548Y4216648D1*
X2431778Y4217486D1*
X2432730Y4219011D1*
X2437454Y4221373D1*
X2440997Y4222554D1*
X2444541D1*
X2451627Y4220192D1*
X2456352Y4217830D1*
X2457533Y4216648D1*
X2459895Y4215467D1*
X2462257Y4213105D1*
Y4159956D1*
X2472887D1*
Y4230822D1*
X2462257D1*
Y4224916D1*
X2461005Y4223633D1*
X2460393Y4223825D1*
X2459895Y4224916D1*
X2458714Y4226097D1*
X2451627Y4230822D1*
X2444541Y4233184D1*
X2435092D1*
G37*
G36*
X2494147Y4222554D2*
Y4221373D1*
X2491785Y4219011D1*
X2489422Y4214286D1*
X2488241Y4210743D1*
X2487060Y4204837D1*
Y4185940D1*
X2488241Y4180034D1*
X2489422Y4176491D1*
X2491785Y4171767D1*
X2494147Y4168223D1*
X2498871Y4163499D1*
X2502415Y4161137D1*
X2507139Y4158774D1*
X2511863Y4157593D1*
X2523674D1*
X2528399Y4158774D1*
X2535485Y4162318D1*
X2542572Y4169404D1*
X2547296Y4178853D1*
X2548478Y4183578D1*
Y4207200D1*
X2547296Y4211924D1*
X2542572Y4221373D1*
X2535485Y4228460D1*
X2528399Y4232003D1*
X2523674Y4233184D1*
X2511863D1*
X2507139Y4232003D1*
X2502415Y4229641D1*
X2498871Y4227278D1*
X2494147Y4222554D1*
X2511863D1*
X2515800Y4223735D1*
X2519737D1*
X2523674Y4222554D1*
X2527218Y4221373D1*
X2529580Y4220192D1*
X2533123Y4216648D1*
Y4215467D1*
X2535485Y4210743D1*
X2536667Y4206019D1*
X2537848Y4204837D1*
Y4185940D1*
X2536667Y4184759D1*
X2535485Y4180034D1*
X2533123Y4175310D1*
Y4174129D1*
X2530761Y4171767D1*
X2528399Y4170585D1*
X2527218Y4169404D1*
X2523674Y4168223D1*
X2519737Y4167042D1*
X2515800D1*
X2511863Y4168223D1*
X2507139Y4170585D1*
X2501233Y4176491D1*
Y4177672D1*
X2500052Y4181215D1*
X2498871Y4188302D1*
X2497690Y4189483D1*
Y4201294D1*
X2498871Y4202475D1*
X2500052Y4209562D1*
X2501233Y4213105D1*
Y4214286D1*
X2508320Y4221373D1*
X2511863Y4222554D1*
X2494147D1*
G37*
G36*
X3043359Y4233184D2*
X3038635Y4232003D1*
X3031548Y4229641D1*
X3029186Y4228460D1*
Y4215467D1*
X3032730Y4217830D1*
X3033911Y4219011D1*
X3036273Y4220192D1*
X3043359Y4222554D1*
X3047296Y4223735D1*
X3051233D1*
X3055170Y4222554D1*
X3058714Y4221373D1*
X3061076Y4220192D1*
X3065800Y4215467D1*
Y4214286D1*
X3068163Y4209562D1*
X3069344Y4204837D1*
X3070525Y4203656D1*
Y4187121D1*
X3069344Y4185940D1*
X3066982Y4178853D1*
Y4177672D1*
X3061076Y4171767D1*
X3058714Y4170585D1*
X3055170Y4169404D1*
X3050840Y4168223D1*
X3046509D1*
X3042178Y4169404D1*
X3038635Y4170585D1*
X3031548Y4174129D1*
X3029186Y4176491D1*
Y4163499D1*
X3031548Y4162318D1*
X3038635Y4159956D1*
X3043359Y4158774D1*
X3055170D1*
X3059895Y4159956D1*
X3063438Y4161137D1*
X3068163Y4163499D1*
X3075249Y4170585D1*
X3077611Y4174129D1*
X3078793Y4176491D1*
X3079974Y4180034D1*
X3081155Y4184759D1*
Y4207200D1*
X3078793Y4214286D1*
X3076430Y4219011D1*
X3074068Y4222554D1*
X3069344Y4227278D1*
X3065800Y4229641D1*
X3063438Y4230822D1*
X3059895Y4232003D1*
X3055170Y4233184D1*
X3043359D1*
G37*
G36*
X3095328Y4196570D2*
Y4159956D1*
X3105958D1*
Y4165861D1*
X3106840Y4166620D1*
X3107452Y4166551D1*
X3108320Y4165861D1*
X3110682Y4163499D1*
X3114226Y4161137D1*
X3118950Y4158774D1*
X3123674Y4157593D1*
X3133123D1*
X3136667Y4158774D1*
X3141391Y4161137D1*
X3146115Y4165861D1*
X3148478Y4169404D1*
X3149659Y4172948D1*
Y4188302D1*
X3147296Y4193026D1*
X3141391Y4198932D1*
X3134304Y4202475D1*
X3129580Y4203656D1*
X3123674Y4204837D1*
X3114226Y4206019D1*
X3105958Y4207200D1*
Y4215467D1*
X3107139Y4216648D1*
Y4217830D1*
X3109501Y4220192D1*
X3111863Y4221373D1*
X3115407Y4222554D1*
X3120525Y4223735D1*
X3125643D1*
X3130761Y4222554D1*
X3143753Y4219011D1*
X3144934D1*
Y4229641D1*
X3143753Y4230822D1*
X3137848Y4232003D1*
X3130761Y4233184D1*
X3115407D1*
X3109501Y4232003D1*
X3102415Y4228460D1*
X3098871Y4224916D1*
X3095328Y4217830D1*
Y4196570D1*
X3105958D1*
X3108320Y4197751D1*
X3110682D1*
X3113044Y4196570D1*
X3122493Y4195389D1*
X3128399Y4194208D1*
X3133123Y4191845D1*
X3137848Y4187121D1*
Y4185940D1*
X3139029Y4184759D1*
Y4175310D1*
X3137848Y4174129D1*
Y4172948D1*
X3134304Y4169404D1*
X3130761Y4168223D1*
X3126824Y4167042D1*
X3122887D1*
X3118950Y4168223D1*
X3115407Y4169404D1*
X3113044Y4170585D1*
X3111863Y4171767D1*
X3109501Y4172948D1*
X3105958Y4176491D1*
Y4196570D1*
X3095328D1*
G37*
G36*
X2073674Y4230822D2*
Y4219011D1*
X2086667Y4217830D1*
X2090210Y4216648D1*
X2094934Y4214286D1*
X2097296Y4211924D1*
X2099659Y4210743D1*
Y4159956D1*
X2110289D1*
Y4230822D1*
X2099659D1*
Y4221373D1*
X2098406Y4220090D1*
X2097795Y4220282D1*
X2097296Y4221373D1*
X2093753Y4224916D1*
X2090210Y4227278D1*
X2085485Y4229641D1*
X2081942Y4230822D1*
X2073674D1*
G37*
G36*
X2319344D2*
Y4219011D1*
X2332336Y4217830D1*
X2335879Y4216648D1*
X2340604Y4214286D1*
X2342966Y4211924D1*
X2345328Y4210743D1*
Y4159956D1*
X2355958D1*
Y4230822D1*
X2345328D1*
Y4221373D1*
X2344076Y4220090D1*
X2343464Y4220282D1*
X2342966Y4221373D1*
X2339422Y4224916D1*
X2335879Y4227278D1*
X2331155Y4229641D1*
X2327611Y4230822D1*
X2319344D1*
G37*
G36*
X3232336Y4206019D2*
Y4195389D1*
X3267769D1*
Y4206019D1*
X3232336D1*
G37*
G36*
X2425643Y4092633D2*
Y3994601D1*
X2436273D1*
Y4092633D1*
X2425643D1*
G37*
G36*
X2217769Y4089089D2*
Y4077278D1*
X2230761D1*
Y4089089D1*
X2217769D1*
G37*
G36*
X2306352Y4078460D2*
X2299265Y4071373D1*
X2296903Y4067830D1*
X2294541Y4063105D1*
X2293359Y4059562D1*
X2292178Y4054837D1*
X2290997Y4047751D1*
Y4035940D1*
X2292178Y4028853D1*
X2294541Y4021767D1*
X2298084Y4014680D1*
X2300446Y4011137D1*
X2308714Y4002869D1*
X2312257Y4000507D1*
X2316982Y3998145D1*
X2324068Y3995782D1*
X2331155Y3994601D1*
X2364226D1*
Y4089089D1*
X2332336D1*
X2325249Y4087908D1*
X2320525Y4086727D1*
X2316982Y4085546D1*
X2309895Y4082003D1*
X2306352Y4078460D1*
X2332336D1*
X2339422Y4079641D1*
X2346509D1*
X2353596Y4078460D1*
Y4005231D1*
X2346509Y4004050D1*
X2339422D1*
X2332336Y4005231D1*
X2326430Y4006412D1*
X2322887Y4007593D1*
X2315800Y4011137D1*
X2308714Y4018223D1*
Y4019404D1*
X2306352Y4024129D1*
X2305170Y4027672D1*
X2303989Y4034759D1*
X2302808Y4035940D1*
Y4047751D1*
X2303989Y4048932D1*
X2305170Y4054837D1*
X2306352Y4059562D1*
X2308714Y4064286D1*
Y4065467D1*
X2314619Y4071373D1*
X2316982Y4072554D1*
X2318163Y4073735D1*
X2322887Y4076097D1*
X2326430Y4077278D1*
X2332336Y4078460D1*
X2306352D1*
G37*
G36*
X2816588Y4089089D2*
Y4078460D1*
X2863832Y4077278D1*
Y4052475D1*
X2820131Y4051294D1*
Y4040664D1*
X2863832Y4039483D1*
Y4006412D1*
X2816588Y4005231D1*
Y3994601D1*
X2874462D1*
Y4089089D1*
X2816588D1*
G37*
G36*
X3046903D2*
Y4078460D1*
X3091785Y4077278D1*
Y4052475D1*
X3049265Y4051294D1*
Y4040664D1*
X3091785Y4039483D1*
Y3994601D1*
X3102415D1*
Y4089089D1*
X3046903D1*
G37*
G36*
X2726824Y4085546D2*
Y4066648D1*
X2704383Y4065467D1*
Y4056019D1*
X2726824Y4054837D1*
Y4014680D1*
X2725643Y4013499D1*
Y4008774D1*
X2722100Y4005231D1*
X2719737Y4004050D1*
X2715800Y4002869D1*
X2711863D1*
X2707926Y4004050D1*
X2704383Y4005231D1*
Y3995782D1*
X2705564Y3994601D1*
X2711470Y3993420D1*
X2722100D1*
X2725643Y3994601D1*
X2730367Y3996963D1*
X2732730Y3999326D1*
X2735092Y4002869D1*
X2736273Y4006412D1*
X2737454Y4012318D1*
Y4054837D1*
X2745722Y4056019D1*
Y4065467D1*
X2737454Y4066648D1*
Y4085546D1*
X2726824D1*
G37*
G36*
X1990997Y4067830D2*
X1985092Y4066648D1*
X1980367Y4065467D1*
X1975643Y4063105D1*
Y4051294D1*
X1985092Y4056019D1*
X1994541Y4058381D1*
X1999265D1*
X2003989Y4057200D1*
X2007533Y4056019D1*
X2012257Y4051294D1*
Y4044208D1*
X2011076Y4043026D1*
X2010688Y4041594D1*
X2009895Y4040664D1*
X2005170Y4038302D1*
X2000446Y4037121D1*
X1994541Y4035940D1*
X1989816Y4034759D1*
X1982730Y4032397D1*
X1980367Y4031215D1*
X1975643Y4026491D1*
X1974462Y4024129D1*
X1973281Y4020585D1*
Y4009956D1*
X1976824Y4002869D1*
X1981548Y3998145D1*
X1988635Y3994601D1*
X1993359Y3993420D1*
X2007533D1*
X2012257Y3994601D1*
X2019344Y3996963D1*
X2024068Y3999326D1*
Y4012318D1*
X2021706Y4011137D1*
X2018163Y4008774D1*
X2011076Y4005231D1*
X2006352Y4004050D1*
X2002021Y4002869D1*
X1997690D1*
X1993359Y4004050D1*
X1989816Y4005231D1*
X1987454Y4006412D1*
X1985092Y4008774D1*
Y4009956D1*
X1983911Y4011137D1*
Y4015861D1*
X1985092Y4017042D1*
Y4019404D1*
X1986273Y4020585D1*
X1990997Y4022948D1*
X1994541Y4024129D1*
X2000446Y4025310D1*
X2009895Y4027672D1*
X2016982Y4031215D1*
X2020525Y4034759D1*
X2022887Y4039483D1*
X2024068Y4045389D1*
Y4047751D1*
X2022887Y4053656D1*
X2021706Y4056019D1*
X2019344Y4059562D1*
X2016982Y4061924D1*
X2013438Y4064286D1*
X2008714Y4066648D1*
X2003989Y4067830D1*
X1990997D1*
G37*
G36*
X2086667Y4058381D2*
X2084304Y4056019D1*
X2083123Y4053656D1*
X2080761Y4046570D1*
Y4030034D1*
X2129186Y4028853D1*
Y4020585D1*
X2128005Y4019404D1*
X2126824Y4015861D1*
X2125643Y4013499D1*
Y4012318D1*
X2120919Y4007593D1*
X2116194Y4005231D1*
X2112651Y4004050D1*
X2107926Y4002869D1*
X2103202D1*
X2093753Y4005231D1*
X2090210Y4006412D1*
X2083123Y4009956D1*
X2081942Y4011137D1*
Y3999326D1*
X2083123Y3998145D1*
X2089029Y3995782D1*
X2098478Y3993420D1*
X2112651D1*
X2117375Y3994601D1*
X2120919Y3995782D1*
X2125643Y3998145D1*
X2129186Y4000507D1*
X2133911Y4005231D1*
X2138635Y4014680D1*
X2139816Y4019404D1*
X2140997Y4028853D1*
Y4031215D1*
X2139816Y4041845D1*
X2137454Y4048932D1*
X2135092Y4053656D1*
X2131548Y4058381D1*
X2129186Y4060743D1*
X2122100Y4065467D1*
X2118556Y4066648D1*
X2113832Y4067830D1*
X2102021D1*
X2097296Y4066648D1*
X2092572Y4064286D1*
X2086667Y4058381D1*
X2102021D1*
X2106352Y4059562D1*
X2110682D1*
X2115013Y4058381D1*
X2118556Y4057200D1*
X2120919Y4056019D1*
X2125643Y4051294D1*
Y4050113D1*
X2128005Y4045389D1*
X2129186Y4044208D1*
Y4039483D1*
X2116194Y4038302D1*
X2103202D1*
X2090210Y4039483D1*
X2090440Y4040320D1*
X2091391Y4041845D1*
X2092572Y4048932D1*
X2093753Y4051294D1*
Y4052475D1*
X2097296Y4056019D1*
X2102021Y4058381D1*
X2086667D1*
G37*
G36*
X2455170Y4031215D2*
Y3994601D1*
X2465800D1*
Y4000507D1*
X2466682Y4001265D1*
X2467295Y4001196D1*
X2468163Y4000507D1*
X2470525Y3998145D1*
X2474068Y3995782D1*
X2478793Y3993420D1*
X2483517Y3992239D1*
X2492966D1*
X2496509Y3993420D1*
X2501233Y3995782D1*
X2505958Y4000507D1*
X2508320Y4004050D1*
X2509501Y4007593D1*
Y4022948D1*
X2507139Y4027672D1*
X2501233Y4033578D1*
X2494147Y4037121D1*
X2489422Y4038302D1*
X2483517Y4039483D1*
X2474068Y4040664D1*
X2465800Y4041845D1*
Y4050113D1*
X2466982Y4051294D1*
Y4052475D1*
X2469344Y4054837D1*
X2471706Y4056019D1*
X2475249Y4057200D1*
X2480367Y4058381D1*
X2485485D1*
X2490604Y4057200D1*
X2503596Y4053656D1*
X2504777D1*
Y4064286D1*
X2503596Y4065467D1*
X2497690Y4066648D1*
X2490604Y4067830D1*
X2475249D1*
X2469344Y4066648D1*
X2462257Y4063105D1*
X2458714Y4059562D1*
X2455170Y4052475D1*
Y4031215D1*
X2465800D1*
X2468163Y4032397D1*
X2470525D1*
X2472887Y4031215D1*
X2482336Y4030034D1*
X2488241Y4028853D1*
X2492966Y4026491D1*
X2497690Y4021767D1*
Y4020585D1*
X2498871Y4019404D1*
Y4009956D1*
X2497690Y4008774D1*
Y4007593D1*
X2494147Y4004050D1*
X2490604Y4002869D1*
X2486667Y4001688D1*
X2482730D1*
X2478793Y4002869D1*
X2475249Y4004050D1*
X2472887Y4005231D1*
X2471706Y4006412D1*
X2469344Y4007593D1*
X2465800Y4011137D1*
Y4031215D1*
X2455170D1*
G37*
G36*
X2540210Y4067830D2*
X2536667Y4066648D1*
X2531942Y4064286D1*
X2528399Y4060743D1*
X2526037Y4057200D1*
X2523674Y4050113D1*
Y3994601D1*
X2534304D1*
X2535485Y4047751D1*
X2536667Y4051294D1*
X2536896Y4052131D1*
X2537848Y4053656D1*
X2542572Y4056019D1*
X2546115Y4057200D1*
X2549659D1*
X2556745Y4054837D1*
X2561470Y4052475D1*
X2562651Y4051294D1*
X2565013Y4050113D1*
X2567375Y4047751D1*
Y3994601D1*
X2578005D1*
Y4065467D1*
X2567375D1*
Y4059562D1*
X2566123Y4058279D1*
X2565511Y4058471D1*
X2565013Y4059562D1*
X2563832Y4060743D1*
X2556745Y4065467D1*
X2549659Y4067830D1*
X2540210D1*
G37*
G36*
X2645328Y4058381D2*
X2642966Y4056019D1*
X2641785Y4053656D1*
X2639422Y4046570D1*
Y4030034D1*
X2687848Y4028853D1*
Y4020585D1*
X2686667Y4019404D1*
X2685485Y4015861D1*
X2684304Y4013499D1*
Y4012318D1*
X2679580Y4007593D1*
X2674856Y4005231D1*
X2671312Y4004050D1*
X2666588Y4002869D1*
X2661863D1*
X2652415Y4005231D1*
X2648871Y4006412D1*
X2641785Y4009956D1*
X2640604Y4011137D1*
Y3999326D1*
X2641785Y3998145D1*
X2647690Y3995782D1*
X2657139Y3993420D1*
X2671312D1*
X2676037Y3994601D1*
X2679580Y3995782D1*
X2684304Y3998145D1*
X2687848Y4000507D1*
X2692572Y4005231D1*
X2697296Y4014680D1*
X2698478Y4019404D1*
X2699659Y4028853D1*
Y4031215D1*
X2698478Y4041845D1*
X2696115Y4048932D1*
X2693753Y4053656D1*
X2690210Y4058381D1*
X2687848Y4060743D1*
X2680761Y4065467D1*
X2677218Y4066648D1*
X2672493Y4067830D1*
X2660682D1*
X2655958Y4066648D1*
X2651233Y4064286D1*
X2645328Y4058381D1*
X2660682D1*
X2665013Y4059562D1*
X2669344D1*
X2673674Y4058381D1*
X2677218Y4057200D1*
X2679580Y4056019D1*
X2684304Y4051294D1*
Y4050113D1*
X2686667Y4045389D1*
X2687848Y4044208D1*
Y4039483D1*
X2674856Y4038302D1*
X2661863D1*
X2648871Y4039483D1*
X2649101Y4040320D1*
X2650052Y4041845D1*
X2651233Y4048932D1*
X2652415Y4051294D1*
Y4052475D1*
X2655958Y4056019D1*
X2660682Y4058381D1*
X2645328D1*
G37*
G36*
X2985485Y4057200D2*
Y4056019D1*
X2983123Y4053656D1*
X2980761Y4048932D1*
X2979580Y4045389D1*
X2978399Y4039483D1*
Y4020585D1*
X2979580Y4014680D1*
X2980761Y4011137D1*
X2983123Y4006412D1*
X2985485Y4002869D1*
X2990210Y3998145D1*
X2993753Y3995782D1*
X2998478Y3993420D1*
X3003202Y3992239D1*
X3015013D1*
X3019737Y3993420D1*
X3026824Y3996963D1*
X3033911Y4004050D1*
X3038635Y4013499D1*
X3039816Y4018223D1*
Y4041845D1*
X3038635Y4046570D1*
X3033911Y4056019D1*
X3026824Y4063105D1*
X3019737Y4066648D1*
X3015013Y4067830D1*
X3003202D1*
X2998478Y4066648D1*
X2993753Y4064286D1*
X2990210Y4061924D1*
X2985485Y4057200D1*
X3003202D1*
X3007139Y4058381D1*
X3011076D1*
X3015013Y4057200D1*
X3018556Y4056019D1*
X3020919Y4054837D1*
X3024462Y4051294D1*
Y4050113D1*
X3026824Y4045389D1*
X3028005Y4040664D1*
X3029186Y4039483D1*
Y4020585D1*
X3028005Y4019404D1*
X3026824Y4014680D1*
X3024462Y4009956D1*
Y4008774D1*
X3022100Y4006412D1*
X3019737Y4005231D1*
X3018556Y4004050D1*
X3015013Y4002869D1*
X3011076Y4001688D1*
X3007139D1*
X3003202Y4002869D1*
X2998478Y4005231D1*
X2992572Y4011137D1*
Y4012318D1*
X2991391Y4015861D1*
X2990210Y4022948D1*
X2989029Y4024129D1*
Y4035940D1*
X2990210Y4037121D1*
X2991391Y4044208D1*
X2992572Y4047751D1*
Y4048932D1*
X2999659Y4056019D1*
X3003202Y4057200D1*
X2985485D1*
G37*
G36*
X2029974Y4065467D2*
Y4053656D1*
X2042966Y4052475D1*
X2046509Y4051294D1*
X2051233Y4048932D1*
X2053596Y4046570D1*
X2055958Y4045389D1*
Y3994601D1*
X2066588D1*
Y4065467D1*
X2055958D1*
Y4056019D1*
X2054706Y4054736D1*
X2054094Y4054928D1*
X2053596Y4056019D1*
X2050052Y4059562D1*
X2046509Y4061924D1*
X2041785Y4064286D1*
X2038241Y4065467D1*
X2029974D1*
G37*
G36*
X2145722D2*
X2146903Y4064286D1*
Y4061924D1*
X2148084Y4058381D1*
X2149265Y4056019D1*
X2151627Y4048932D1*
X2152808Y4046570D1*
X2155170Y4039483D1*
X2156352Y4037121D1*
X2158714Y4030034D1*
X2159895Y4027672D1*
X2163438Y4017042D1*
X2164619Y4014680D1*
X2166982Y4007593D1*
X2168163Y4005231D1*
X2170525Y3998145D1*
X2171706Y3995782D1*
X2172887Y3994601D1*
X2182336D1*
X2183517Y3996963D1*
X2185879Y4004050D1*
X2187060Y4006412D1*
X2189422Y4013499D1*
X2190604Y4015861D1*
X2192966Y4022948D1*
X2194147Y4025310D1*
X2197690Y4035940D1*
X2198871Y4038302D1*
X2201233Y4045389D1*
X2202415Y4047751D1*
X2205958Y4058381D1*
X2207139Y4060743D1*
X2208320Y4064286D1*
Y4065467D1*
X2196509D1*
X2191785Y4051294D1*
X2190604Y4048932D1*
X2184698Y4031215D1*
X2183517Y4028853D1*
X2178793Y4014680D1*
Y4012318D1*
X2177352Y4011085D1*
X2175987Y4011238D1*
X2175249Y4012318D1*
Y4014680D1*
X2172887Y4021767D1*
X2171706Y4024129D1*
X2163438Y4048932D1*
X2162257Y4051294D1*
X2157533Y4065467D1*
X2145722D1*
G37*
G36*
X2218950D2*
Y3994601D1*
X2229580D1*
Y4065467D1*
X2218950D1*
G37*
G36*
X2240210D2*
Y4053656D1*
X2253202Y4052475D1*
X2256745Y4051294D1*
X2261470Y4048932D1*
X2263832Y4046570D1*
X2266194Y4045389D1*
Y3994601D1*
X2276824D1*
Y4065467D1*
X2266194D1*
Y4056019D1*
X2264942Y4054736D1*
X2264330Y4054928D1*
X2263832Y4056019D1*
X2260289Y4059562D1*
X2256745Y4061924D1*
X2252021Y4064286D1*
X2248478Y4065467D1*
X2240210D1*
G37*
G36*
X2588635D2*
Y4053656D1*
X2601627Y4052475D1*
X2605170Y4051294D1*
X2609895Y4048932D1*
X2612257Y4046570D1*
X2614619Y4045389D1*
Y3994601D1*
X2625249D1*
Y4065467D1*
X2614619D1*
Y4056019D1*
X2613367Y4054736D1*
X2612755Y4054928D1*
X2612257Y4056019D1*
X2608714Y4059562D1*
X2605170Y4061924D1*
X2600446Y4064286D1*
X2596903Y4065467D1*
X2588635D1*
G37*
G36*
X2749265D2*
Y4064286D1*
X2753989Y4057200D1*
X2757533Y4052475D1*
X2762257Y4045389D1*
X2765800Y4040664D1*
X2770525Y4033578D1*
X2772887Y4031215D1*
X2772499Y4029783D1*
X2771706Y4028853D1*
X2768163Y4024129D1*
X2749265Y3995782D1*
Y3994601D1*
X2762257D1*
X2763438Y3995782D1*
X2765800Y3999326D1*
X2766982Y4001688D1*
X2774068Y4012318D1*
X2775249Y4014680D1*
X2777611Y4018223D1*
X2778207Y4019397D1*
X2778846Y4020488D1*
X2779685Y4021325D1*
X2780288Y4021270D1*
X2781099Y4020467D1*
X2781732Y4019382D1*
X2783517Y4015861D1*
X2797690Y3994601D1*
X2810682D1*
X2805958Y4001688D1*
X2802415Y4006412D1*
X2797690Y4013499D1*
X2794147Y4018223D1*
X2787060Y4028853D1*
X2788241Y4032397D1*
X2809501Y4064286D1*
Y4065467D1*
X2796509D1*
X2795328Y4064286D1*
X2794147Y4061924D1*
X2784698Y4047751D1*
X2783517Y4045389D1*
X2781155Y4041845D1*
X2780725Y4040393D1*
X2779504Y4039392D1*
X2778793Y4039483D1*
X2775249Y4043026D1*
Y4044208D1*
X2772887Y4047751D1*
X2771706Y4050113D1*
X2762257Y4064286D1*
X2761076Y4065467D1*
X2749265D1*
G37*
G36*
X2927611D2*
Y4053656D1*
X2940604Y4052475D1*
X2944147Y4051294D1*
X2948871Y4048932D1*
X2951233Y4046570D1*
X2953596Y4045389D1*
Y3994601D1*
X2964226D1*
Y4065467D1*
X2953596D1*
Y4056019D1*
X2952343Y4054736D1*
X2951732Y4054928D1*
X2951233Y4056019D1*
X2947690Y4059562D1*
X2944147Y4061924D1*
X2939422Y4064286D1*
X2935879Y4065467D1*
X2927611D1*
G37*
G36*
X2563832Y3725310D2*
Y3662711D1*
X2574462D1*
Y3667436D1*
X2575724Y3668224D1*
X2576824Y3668617D1*
X2580367Y3665074D1*
X2587454Y3661530D1*
X2590997Y3660349D1*
X2601627D1*
X2605170Y3661530D1*
X2609895Y3663893D1*
X2614619Y3668617D1*
X2616982Y3672160D1*
X2619344Y3676885D1*
X2620525Y3680428D1*
X2621706Y3685152D1*
X2622887Y3696963D1*
Y3698145D1*
X2621706Y3708774D1*
X2620525Y3713499D1*
X2619344Y3717042D1*
X2616982Y3721767D1*
X2613438Y3726491D1*
X2609895Y3730034D1*
X2606352Y3732397D1*
X2601627Y3734759D1*
X2598084Y3735940D1*
X2587454D1*
X2582730Y3734759D1*
X2579186Y3733578D1*
X2576824Y3732397D1*
X2575572Y3731114D1*
X2574960Y3731306D1*
X2574462Y3732397D1*
Y3761924D1*
X2563832D1*
Y3725310D1*
X2583911D1*
X2588241Y3726491D1*
X2592572D1*
X2596903Y3725310D1*
X2601627Y3722948D1*
X2607533Y3717042D1*
Y3715861D1*
X2608714Y3713499D1*
X2609895Y3708774D1*
X2611076Y3707593D1*
Y3688696D1*
X2609895Y3687515D1*
X2608714Y3682790D1*
X2607533Y3679247D1*
Y3678066D1*
X2603989Y3674523D1*
X2599265Y3672160D1*
X2595328Y3670979D1*
X2591391D1*
X2587454Y3672160D1*
X2583911Y3673341D1*
X2579186Y3675704D1*
X2578005Y3676885D1*
X2575643Y3678066D1*
X2574462Y3679247D1*
Y3721767D1*
X2576824Y3722948D1*
X2583911Y3725310D1*
X2563832D1*
G37*
G36*
X2222493Y3760743D2*
X2223674Y3759562D1*
Y3757200D1*
X2226037Y3750113D1*
X2227218Y3745389D1*
X2231942Y3731215D1*
X2233123Y3726491D1*
X2236667Y3715861D1*
X2237848Y3711137D1*
X2242572Y3696963D1*
X2243753Y3692239D1*
X2247296Y3681609D1*
X2248478Y3676885D1*
X2253202Y3662711D1*
X2254383Y3657987D1*
X2257926Y3647357D1*
X2259107Y3642633D1*
X2260289Y3641452D1*
X2269737D1*
X2268556Y3646176D1*
X2263832Y3660349D1*
X2262651Y3665074D1*
X2259107Y3675704D1*
X2257926Y3680428D1*
X2254383Y3691058D1*
X2253202Y3695782D1*
X2249659Y3706412D1*
X2248478Y3711137D1*
X2244934Y3721767D1*
X2243753Y3726491D1*
X2240210Y3737121D1*
X2239029Y3741845D1*
X2234304Y3756019D1*
X2233123Y3760743D1*
X2222493D1*
G37*
G36*
X2534304D2*
Y3662711D1*
X2544934D1*
Y3760743D1*
X2534304D1*
G37*
G36*
X2635879D2*
Y3662711D1*
X2646509D1*
Y3760743D1*
X2635879D1*
G37*
G36*
X2768163Y3724129D2*
X2767774Y3722696D1*
X2766982Y3721767D1*
X2765800Y3719404D1*
X2763438Y3709956D1*
Y3689877D1*
X2764619Y3683971D1*
X2765800Y3680428D1*
X2769344Y3673341D1*
X2772887Y3668617D1*
X2775249Y3666255D1*
X2778793Y3663893D1*
X2783517Y3661530D1*
X2787060Y3660349D1*
X2797690D1*
X2802415Y3661530D1*
X2807139Y3663893D1*
X2808714Y3665074D1*
X2810289D1*
X2811863Y3663893D1*
Y3662711D1*
X2821312D1*
Y3760743D1*
X2810682D1*
Y3728853D1*
X2809242Y3727621D1*
X2808320Y3727672D1*
X2804777Y3731215D1*
X2797690Y3734759D1*
X2794147Y3735940D1*
X2783517D1*
X2779974Y3734759D1*
X2775249Y3732397D1*
X2770525Y3727672D1*
X2768163Y3724129D1*
X2785879D1*
X2789816Y3725310D1*
X2793753D1*
X2797690Y3724129D1*
X2801233Y3722948D1*
X2805958Y3720585D1*
X2807139Y3719404D1*
X2809501Y3718223D1*
X2810682Y3717042D1*
Y3674523D1*
X2805958Y3672160D1*
X2801233Y3670979D1*
X2796903Y3669798D1*
X2792572D1*
X2788241Y3670979D1*
X2783517Y3673341D1*
X2777611Y3679247D1*
Y3680428D1*
X2776430Y3683971D1*
X2775249Y3689877D1*
X2774068Y3691058D1*
Y3705231D1*
X2775249Y3706412D1*
X2776430Y3712318D1*
X2777611Y3715861D1*
X2778793Y3718223D1*
Y3719404D1*
X2781155Y3721767D1*
X2785879Y3724129D1*
X2768163D1*
G37*
G36*
X3022100Y3760743D2*
X3017375Y3756019D1*
X3010289Y3745389D1*
X3003202Y3731215D1*
X3000840Y3724129D1*
X2999659Y3719404D1*
X2998478Y3712318D1*
Y3685152D1*
X2999659Y3678066D1*
X3000840Y3673341D1*
X3003202Y3666255D1*
X3010289Y3652082D1*
X3012651Y3648538D1*
X3013832Y3646176D1*
X3017375Y3641452D1*
X3022100Y3636727D1*
X3035092D1*
X3028005Y3644995D1*
X3023281Y3650900D1*
X3020919Y3654444D1*
X3015013Y3666255D1*
X3011470Y3676885D1*
X3010289Y3681609D1*
X3009107Y3689877D1*
X3007926Y3691058D1*
Y3706412D1*
X3009107Y3707593D1*
X3010289Y3715861D1*
X3011470Y3720585D1*
X3015013Y3731215D1*
X3020919Y3743026D1*
X3028005Y3752475D1*
X3035092Y3760743D1*
X3022100D1*
G37*
G36*
X3105958D2*
X3115407Y3751294D1*
Y3750113D1*
X3118950Y3745389D1*
X3120131Y3743026D1*
X3122493Y3739483D1*
X3126037Y3732397D1*
X3129580Y3721767D1*
X3130761Y3717042D1*
X3131942Y3711137D1*
X3133123Y3709956D1*
Y3687515D1*
X3131942Y3686334D1*
X3130761Y3680428D1*
X3129580Y3675704D1*
X3126037Y3665074D1*
X3122493Y3657987D1*
X3120131Y3654444D1*
X3118950Y3652082D1*
X3115407Y3647357D1*
X3105958Y3636727D1*
X3120131D1*
X3121312Y3637908D1*
X3128399Y3647357D1*
X3129580Y3649719D1*
X3131942Y3653263D1*
X3137848Y3665074D1*
X3140210Y3672160D1*
X3141391Y3676885D1*
X3142572Y3682790D1*
X3143753Y3694601D1*
Y3702869D1*
X3142572Y3714680D1*
X3141391Y3720585D1*
X3140210Y3725310D1*
X3137848Y3732397D1*
X3131942Y3744208D1*
X3129580Y3747751D1*
X3128399Y3750113D1*
X3121312Y3759562D1*
X3120131Y3760743D1*
X3105958D1*
G37*
G36*
X2034698Y3759562D2*
X2029974Y3758381D1*
X2022887Y3754837D1*
X2018163Y3750113D1*
X2015800Y3746570D1*
X2013438Y3739483D1*
Y3727672D1*
X2014619Y3722948D1*
X2015800Y3719404D1*
X2019344Y3712318D1*
X2021706Y3708774D1*
X2025249Y3704050D1*
X2055958Y3673341D1*
X2009895Y3672160D1*
Y3662711D1*
X2067769D1*
Y3674523D1*
X2042966Y3700507D1*
X2037060Y3707593D1*
X2032336Y3713499D1*
X2029974Y3717042D1*
X2027611Y3721767D1*
X2026430Y3726491D1*
X2025249Y3727672D1*
Y3738302D1*
X2026430Y3739483D1*
Y3741845D1*
X2031155Y3746570D1*
X2035879Y3748932D1*
X2040210Y3750113D1*
X2044541D1*
X2048871Y3748932D1*
X2053596Y3747751D1*
X2057139Y3746570D1*
X2061863Y3744208D1*
X2063044Y3743026D1*
X2065407Y3741845D1*
Y3753656D1*
X2064226Y3754837D1*
X2061863Y3756019D1*
X2058320Y3757200D1*
X2053596Y3758381D1*
X2047690Y3759562D1*
X2034698D1*
G37*
G36*
X2089029Y3748932D2*
X2088641Y3747499D1*
X2087848Y3746570D1*
X2084304Y3739483D1*
X2083123Y3734759D1*
X2081942Y3728853D1*
X2080761Y3718223D1*
Y3701688D1*
X2081942Y3691058D1*
X2083123Y3685152D1*
X2084304Y3680428D1*
X2085485Y3676885D1*
X2087848Y3672160D1*
X2096115Y3663893D1*
X2100840Y3661530D1*
X2105564Y3660349D1*
X2116194D1*
X2120919Y3661530D1*
X2128005Y3665074D1*
X2131548Y3668617D1*
X2133911Y3672160D1*
X2137454Y3679247D1*
X2139816Y3688696D1*
X2140997Y3696963D1*
Y3722948D1*
X2139816Y3731215D1*
X2138635Y3737121D1*
X2137454Y3740664D1*
X2133911Y3747751D1*
X2131548Y3751294D1*
X2128005Y3754837D1*
X2120919Y3758381D1*
X2116194Y3759562D1*
X2105564D1*
X2100840Y3758381D1*
X2096115Y3756019D1*
X2089029Y3748932D1*
X2105564D1*
X2109107Y3750113D1*
X2112651D1*
X2119737Y3747751D1*
X2124462Y3743026D1*
Y3741845D1*
X2125643Y3739483D1*
X2126824Y3735940D1*
X2128005Y3728853D1*
X2129186Y3727672D1*
Y3692239D1*
X2128005Y3691058D1*
X2126824Y3683971D1*
X2125643Y3680428D1*
X2124462Y3678066D1*
Y3676885D1*
X2119737Y3672160D1*
X2112651Y3669798D1*
X2109107D1*
X2105564Y3670979D1*
X2100840Y3673341D1*
X2098478Y3675704D1*
Y3676885D1*
X2096115Y3681609D1*
X2094934Y3686334D1*
X2093753Y3695782D1*
X2092572Y3696963D1*
Y3722948D1*
X2093753Y3724129D1*
X2094934Y3733578D1*
X2096115Y3738302D1*
X2098478Y3743026D1*
Y3744208D1*
X2100840Y3746570D1*
X2105564Y3748932D1*
X2089029D1*
G37*
G36*
X2178793Y3759562D2*
X2174068Y3758381D1*
X2166982Y3754837D1*
X2162257Y3750113D1*
X2159895Y3746570D1*
X2157533Y3739483D1*
Y3727672D1*
X2158714Y3722948D1*
X2159895Y3719404D1*
X2163438Y3712318D1*
X2165800Y3708774D1*
X2169344Y3704050D1*
X2200052Y3673341D1*
X2153989Y3672160D1*
Y3662711D1*
X2211863D1*
Y3674523D1*
X2187060Y3700507D1*
X2181155Y3707593D1*
X2176430Y3713499D1*
X2174068Y3717042D1*
X2171706Y3721767D1*
X2170525Y3726491D1*
X2169344Y3727672D1*
Y3738302D1*
X2170525Y3739483D1*
Y3741845D1*
X2175249Y3746570D1*
X2179974Y3748932D1*
X2184304Y3750113D1*
X2188635D1*
X2192966Y3748932D1*
X2197690Y3747751D1*
X2201233Y3746570D1*
X2205958Y3744208D1*
X2207139Y3743026D1*
X2209501Y3741845D1*
Y3753656D1*
X2208320Y3754837D1*
X2205958Y3756019D1*
X2202415Y3757200D1*
X2197690Y3758381D1*
X2191785Y3759562D1*
X2178793D1*
G37*
G36*
X2911076Y3681609D2*
X2912257Y3682790D1*
X2914619Y3687515D1*
X2915800Y3692239D1*
Y3712318D1*
X2914619Y3717042D1*
X2911076Y3724129D1*
X2903989Y3731215D1*
X2899265Y3733578D1*
X2895722Y3734759D1*
X2886273D1*
X2882730Y3733578D1*
X2880367Y3732397D1*
X2878927Y3731164D1*
X2877558Y3731315D1*
X2876439Y3732683D1*
X2876824Y3733578D1*
X2867375D1*
Y3679247D1*
X2861863Y3678066D1*
X2856352D1*
X2850840Y3679247D1*
Y3681609D1*
X2849659Y3685152D1*
X2848478Y3691058D1*
X2847296Y3692239D1*
Y3714680D1*
X2848478Y3715861D1*
X2849659Y3721767D1*
X2850840Y3726491D1*
X2854383Y3733578D1*
X2856745Y3737121D1*
Y3738302D1*
X2862651Y3744208D1*
X2865013Y3745389D1*
X2866194Y3746570D1*
X2870919Y3748932D1*
X2874462Y3750113D1*
X2880367Y3751294D1*
X2885879Y3752475D1*
X2891391D1*
X2896903Y3751294D1*
X2905170Y3748932D1*
X2908714Y3747751D1*
X2911076Y3746570D1*
X2912257Y3745389D1*
X2914619Y3744208D1*
X2924068Y3734759D1*
Y3733578D1*
X2926430Y3730034D1*
X2928793Y3725310D1*
X2931155Y3718223D1*
X2932336Y3711137D1*
X2933517Y3709956D1*
Y3698145D1*
X2932336Y3696963D1*
X2931155Y3688696D1*
X2928793Y3681609D1*
X2926430Y3676885D1*
X2924068Y3673341D1*
Y3672160D1*
X2916982Y3665074D1*
X2914619Y3663893D1*
X2913438Y3662711D1*
X2906352Y3659168D1*
X2902808Y3657987D1*
X2898084Y3656806D1*
X2890997Y3655625D1*
X2883911D1*
X2869737Y3657987D1*
X2868556D1*
Y3650900D1*
X2869737Y3649719D1*
X2878005Y3648538D1*
X2896903D1*
X2902808Y3649719D1*
X2909895Y3652082D1*
X2916982Y3655625D1*
X2920525Y3657987D1*
X2929974Y3667436D1*
X2934698Y3674523D1*
X2935879Y3676885D1*
X2937060Y3680428D1*
X2938241Y3682790D1*
X2939422Y3686334D1*
X2940604Y3692239D1*
Y3715861D1*
X2939422Y3720585D1*
X2937060Y3727672D1*
X2934698Y3732397D1*
X2929974Y3739483D1*
X2919344Y3750113D1*
X2915800Y3752475D1*
X2906352Y3757200D1*
X2901627Y3758381D1*
X2895722Y3759562D1*
X2881548D1*
X2875643Y3758381D1*
X2870919Y3757200D1*
X2861470Y3752475D1*
X2857926Y3750113D1*
X2852021Y3744208D1*
X2848478Y3739483D1*
X2842572Y3727672D1*
X2840210Y3718223D1*
X2839029Y3707593D1*
Y3701688D1*
X2840210Y3692239D1*
X2841391Y3687515D1*
X2843753Y3680428D1*
X2847296Y3673341D1*
X2848478Y3672160D1*
X2874462D1*
X2875643Y3674523D1*
Y3678066D1*
X2876905Y3678854D1*
X2878005Y3679247D1*
X2881548Y3675704D1*
X2885092Y3673341D1*
X2889816Y3672160D1*
X2899265D1*
X2902808Y3673341D1*
X2906352Y3675704D1*
X2911076Y3680428D1*
Y3681609D1*
X2896903D1*
X2893753Y3680428D1*
X2890604D1*
X2887454Y3681609D1*
X2883911Y3682790D1*
X2881548Y3683971D1*
X2880367Y3685152D1*
X2878005Y3686334D1*
X2876824Y3687515D1*
Y3721767D1*
X2878005Y3722948D1*
X2880367Y3724129D1*
X2883911Y3725310D1*
X2887848Y3726491D1*
X2891785D1*
X2895722Y3725310D1*
X2898084Y3724129D1*
X2903989Y3718223D1*
Y3717042D1*
X2905170Y3713499D1*
X2906352Y3712318D1*
Y3693420D1*
X2905170Y3692239D1*
X2903989Y3688696D1*
X2902808Y3686334D1*
X2902420Y3684901D1*
X2901627Y3683971D1*
X2896903Y3681609D1*
X2911076D1*
G37*
G36*
X1959107Y3757200D2*
Y3672160D1*
X1942572Y3670979D1*
Y3662711D1*
X1987454D1*
Y3670979D1*
X1970919Y3672160D1*
Y3735940D1*
X1987454Y3737121D1*
Y3744208D1*
X1979186Y3745389D1*
X1975643Y3746570D1*
X1970919Y3748932D1*
Y3750113D1*
X1968556Y3757200D1*
X1959107D1*
G37*
G36*
X2296903D2*
Y3672160D1*
X2280367Y3670979D1*
Y3662711D1*
X2325249D1*
Y3670979D1*
X2308714Y3672160D1*
Y3735940D1*
X2325249Y3737121D1*
Y3744208D1*
X2316982Y3745389D1*
X2313438Y3746570D1*
X2308714Y3748932D1*
Y3750113D1*
X2306352Y3757200D1*
X2296903D1*
G37*
G36*
X2664226D2*
Y3745389D1*
X2677218D1*
Y3757200D1*
X2664226D1*
G37*
G36*
X2391391Y3725310D2*
Y3661530D1*
X2392572Y3655625D1*
X2393753Y3652082D1*
X2396115Y3647357D1*
X2399659Y3642633D1*
X2404383Y3639089D1*
X2406745Y3637908D1*
X2410289Y3636727D1*
X2416194Y3635546D1*
X2431548D1*
X2437454Y3636727D1*
X2442178Y3637908D1*
X2443359Y3639089D1*
Y3649719D1*
X2442178D1*
X2429186Y3646176D1*
X2424462Y3644995D1*
X2419737D1*
X2415013Y3646176D1*
X2411470Y3647357D1*
X2406745Y3649719D1*
X2405345Y3651047D1*
X2405564Y3652082D1*
X2404383Y3654444D1*
X2403202Y3657987D1*
X2402021Y3659168D1*
Y3670979D1*
X2402903Y3671738D1*
X2403515Y3671669D1*
X2404383Y3670979D1*
X2406745Y3668617D1*
X2413832Y3665074D1*
X2417375Y3663893D1*
X2429186D1*
X2432730Y3665074D1*
X2437454Y3667436D1*
X2444541Y3674523D1*
X2446903Y3679247D1*
X2449265Y3686334D1*
X2450446Y3698145D1*
Y3699326D1*
X2449265Y3709956D1*
X2446903Y3717042D1*
X2444541Y3721767D1*
X2442178Y3725310D1*
X2436273Y3731215D1*
X2429186Y3734759D1*
X2425643Y3735940D1*
X2415013D1*
X2410289Y3734759D1*
X2405564Y3732397D1*
X2404124Y3731164D1*
X2402755Y3731315D1*
X2401636Y3732683D1*
X2402021Y3733578D1*
X2391391D1*
Y3725310D1*
X2411470D1*
X2415800Y3726491D1*
X2420131D1*
X2424462Y3725310D1*
X2428005Y3724129D1*
X2429186Y3722948D1*
X2431548Y3721767D1*
X2432500Y3720242D1*
X2432730Y3719404D1*
X2435092Y3715861D1*
X2436273Y3713499D1*
X2437454Y3708774D1*
X2438635Y3707593D1*
Y3689877D1*
X2437454Y3688696D1*
X2436273Y3683971D1*
X2435092Y3681609D1*
Y3680428D1*
X2430367Y3675704D1*
X2426824Y3674523D1*
X2422887Y3673341D1*
X2418950D1*
X2415013Y3674523D1*
X2411470Y3675704D1*
X2404383Y3679247D1*
X2402021Y3681609D1*
Y3721767D1*
X2404383Y3722948D1*
X2411470Y3725310D1*
X2391391D1*
G37*
G36*
X2465800D2*
Y3724129D1*
X2463438Y3721767D1*
X2461076Y3717042D1*
X2459895Y3713499D1*
X2458714Y3707593D1*
Y3688696D1*
X2459895Y3682790D1*
X2461076Y3679247D1*
X2463438Y3674523D1*
X2465800Y3670979D1*
X2470525Y3666255D1*
X2474068Y3663893D1*
X2478793Y3661530D1*
X2483517Y3660349D1*
X2495328D1*
X2500052Y3661530D1*
X2507139Y3665074D1*
X2514226Y3672160D1*
X2518950Y3681609D1*
X2520131Y3686334D1*
Y3709956D1*
X2518950Y3714680D1*
X2514226Y3724129D1*
X2507139Y3731215D1*
X2500052Y3734759D1*
X2495328Y3735940D1*
X2483517D1*
X2478793Y3734759D1*
X2474068Y3732397D1*
X2470525Y3730034D1*
X2465800Y3725310D1*
X2483517D1*
X2487454Y3726491D1*
X2491391D1*
X2495328Y3725310D1*
X2498871Y3724129D1*
X2501233Y3722948D1*
X2504777Y3719404D1*
Y3718223D1*
X2507139Y3713499D1*
X2508320Y3708774D1*
X2509501Y3707593D1*
Y3688696D1*
X2508320Y3687515D1*
X2507139Y3682790D1*
X2504777Y3678066D1*
Y3676885D1*
X2502415Y3674523D1*
X2500052Y3673341D1*
X2498871Y3672160D1*
X2495328Y3670979D1*
X2491391Y3669798D1*
X2487454D1*
X2483517Y3670979D1*
X2478793Y3673341D1*
X2472887Y3679247D1*
Y3680428D1*
X2471706Y3683971D1*
X2470525Y3691058D1*
X2469344Y3692239D1*
Y3704050D1*
X2470525Y3705231D1*
X2471706Y3712318D1*
X2472887Y3715861D1*
Y3717042D1*
X2479974Y3724129D1*
X2483517Y3725310D1*
X2465800D1*
G37*
G36*
X3058714Y3735940D2*
X3053989Y3734759D1*
X3046903Y3732397D1*
X3044541Y3731215D1*
Y3718223D1*
X3048084Y3720585D1*
X3049265Y3721767D1*
X3051627Y3722948D1*
X3058714Y3725310D1*
X3062651Y3726491D1*
X3066588D1*
X3070525Y3725310D1*
X3074068Y3724129D1*
X3076430Y3722948D1*
X3081155Y3718223D1*
Y3717042D1*
X3083517Y3712318D1*
X3084698Y3707593D1*
X3085879Y3706412D1*
Y3689877D1*
X3084698Y3688696D1*
X3082336Y3681609D1*
Y3680428D1*
X3076430Y3674523D1*
X3074068Y3673341D1*
X3070525Y3672160D1*
X3066194Y3670979D1*
X3061863D1*
X3057533Y3672160D1*
X3053989Y3673341D1*
X3046903Y3676885D1*
X3044541Y3679247D1*
Y3666255D1*
X3046903Y3665074D1*
X3053989Y3662711D1*
X3058714Y3661530D1*
X3070525D1*
X3075249Y3662711D1*
X3078793Y3663893D1*
X3083517Y3666255D1*
X3090604Y3673341D1*
X3092966Y3676885D1*
X3094147Y3679247D1*
X3095328Y3682790D1*
X3096509Y3687515D1*
Y3709956D1*
X3094147Y3717042D1*
X3091785Y3721767D1*
X3089422Y3725310D1*
X3084698Y3730034D1*
X3081155Y3732397D1*
X3078793Y3733578D1*
X3075249Y3734759D1*
X3070525Y3735940D1*
X3058714D1*
G37*
G36*
X2665407Y3733578D2*
Y3662711D1*
X2676037D1*
Y3733578D1*
X2665407D1*
G37*
G36*
X2694934D2*
Y3662711D1*
X2705564D1*
Y3668617D1*
X2706446Y3669375D1*
X2707058Y3669307D1*
X2707926Y3668617D1*
X2712651Y3665074D1*
X2719737Y3661530D1*
X2723281Y3660349D1*
X2732730D1*
X2736273Y3661530D1*
X2740997Y3663893D1*
X2745722Y3668617D1*
X2748084Y3673341D1*
X2749265Y3676885D1*
X2750446Y3683971D1*
Y3733578D1*
X2739816D1*
X2738635Y3686334D1*
X2737454Y3679247D1*
Y3676885D1*
X2733911Y3673341D1*
X2731548Y3672160D1*
X2727611Y3670979D1*
X2723674D1*
X2719737Y3672160D1*
X2716194Y3673341D1*
X2711470Y3675704D1*
X2710289Y3676885D1*
X2707926Y3678066D1*
X2705564Y3680428D1*
Y3733578D1*
X2694934D1*
G37*
G36*
X1807804Y3588705D2*
Y3548199D1*
X1815560D1*
Y3551647D1*
X1816204Y3552200D1*
X1816650Y3552150D1*
X1817284Y3551647D1*
X1819869Y3549061D1*
X1823317Y3547338D1*
X1826764Y3546476D1*
X1832796D1*
X1836244Y3547338D1*
X1837967Y3548199D1*
X1843138Y3553370D1*
X1845724Y3558541D1*
X1846585Y3561988D1*
X1847447Y3567159D1*
Y3574916D1*
X1846585Y3580086D1*
X1845724Y3582672D1*
X1843138Y3587843D1*
X1837106Y3593875D1*
X1833658Y3595599D1*
X1831073Y3596461D1*
X1823317D1*
X1818146Y3594737D1*
X1817095Y3593838D1*
X1816098Y3593949D1*
X1815560Y3594737D1*
Y3614559D1*
X1807804D1*
Y3588705D1*
X1820731D1*
X1823891Y3589566D1*
X1827051D1*
X1830211Y3588705D1*
X1832796Y3587843D1*
X1833658Y3586981D1*
X1835382Y3586119D1*
X1836076Y3585006D1*
X1836244Y3584396D1*
X1837967Y3581810D1*
X1838829Y3578363D1*
X1839691Y3577501D1*
Y3563712D1*
X1838829Y3562850D1*
X1837967Y3560265D1*
X1837106Y3558541D1*
Y3557679D1*
X1834520Y3555094D1*
X1829349Y3553370D1*
X1826764D1*
X1821593Y3555094D1*
X1816422Y3557679D1*
X1815560Y3558541D1*
Y3586981D1*
X1817284Y3587843D1*
X1820731Y3588705D1*
X1807804D1*
G37*
G36*
X2010330D2*
Y3548199D1*
X2018086D1*
Y3551647D1*
X2018729Y3552200D1*
X2019176Y3552150D1*
X2019809Y3551647D1*
X2022395Y3549061D1*
X2025842Y3547338D1*
X2029289Y3546476D1*
X2035322D1*
X2038769Y3547338D1*
X2040493Y3548199D1*
X2045664Y3553370D1*
X2048249Y3558541D1*
X2049111Y3561988D1*
X2049973Y3567159D1*
Y3574916D1*
X2049111Y3580086D1*
X2048249Y3582672D1*
X2045664Y3587843D1*
X2039631Y3593875D1*
X2036184Y3595599D1*
X2033598Y3596461D1*
X2025842D1*
X2020671Y3594737D1*
X2019620Y3593838D1*
X2018624Y3593949D1*
X2018086Y3594737D1*
Y3614559D1*
X2010330D1*
Y3588705D1*
X2023257D1*
X2026417Y3589566D1*
X2029577D1*
X2032737Y3588705D1*
X2035322Y3587843D1*
X2036184Y3586981D1*
X2037907Y3586119D1*
X2038602Y3585006D1*
X2038769Y3584396D1*
X2040493Y3581810D1*
X2041355Y3578363D1*
X2042217Y3577501D1*
Y3563712D1*
X2041355Y3562850D1*
X2040493Y3560265D1*
X2039631Y3558541D1*
Y3557679D1*
X2037046Y3555094D1*
X2031875Y3553370D1*
X2029289D1*
X2024119Y3555094D1*
X2018948Y3557679D1*
X2018086Y3558541D1*
Y3586981D1*
X2019809Y3587843D1*
X2023257Y3588705D1*
X2010330D1*
G37*
G36*
X2288694D2*
Y3548199D1*
X2296451D1*
Y3551647D1*
X2297094Y3552200D1*
X2297541Y3552150D1*
X2298174Y3551647D1*
X2300760Y3549061D1*
X2304207Y3547338D1*
X2307654Y3546476D1*
X2313687D1*
X2317134Y3547338D1*
X2318858Y3548199D1*
X2324029Y3553370D1*
X2326614Y3558541D1*
X2327476Y3561988D1*
X2328338Y3567159D1*
Y3574916D1*
X2327476Y3580086D1*
X2326614Y3582672D1*
X2324029Y3587843D1*
X2317996Y3593875D1*
X2314549Y3595599D1*
X2311963Y3596461D1*
X2304207D1*
X2299036Y3594737D1*
X2297985Y3593838D1*
X2296989Y3593949D1*
X2296451Y3594737D1*
Y3614559D1*
X2288694D1*
Y3588705D1*
X2301622D1*
X2304782Y3589566D1*
X2307942D1*
X2311102Y3588705D1*
X2313687Y3587843D1*
X2314549Y3586981D1*
X2316272Y3586119D1*
X2316967Y3585006D1*
X2317134Y3584396D1*
X2318858Y3581810D1*
X2319720Y3578363D1*
X2320582Y3577501D1*
Y3563712D1*
X2319720Y3562850D1*
X2318858Y3560265D1*
X2317996Y3558541D1*
Y3557679D1*
X2315411Y3555094D1*
X2310240Y3553370D1*
X2307654D1*
X2302483Y3555094D1*
X2297313Y3557679D1*
X2296451Y3558541D1*
Y3586981D1*
X2298174Y3587843D1*
X2301622Y3588705D1*
X2288694D1*
G37*
G36*
X1743168Y3613697D2*
Y3575777D1*
X1742254Y3574841D1*
X1741808Y3574981D1*
X1741444Y3575777D1*
X1736274Y3581810D1*
X1724208Y3594737D1*
X1714728D1*
X1733688Y3575777D1*
Y3574916D1*
X1731103Y3572330D1*
X1713867Y3550785D1*
X1712143Y3548199D1*
X1721623D1*
X1723346Y3549923D1*
X1725932Y3553370D1*
X1729379Y3557679D1*
X1734550Y3564574D1*
X1737997Y3568883D1*
X1738176Y3569468D1*
X1738955Y3570239D1*
X1739721Y3570607D1*
X1743168Y3567159D1*
Y3548199D1*
X1750063D1*
Y3613697D1*
X1743168D1*
G37*
G36*
X2269735D2*
Y3548199D1*
X2276629D1*
Y3613697D1*
X2269735D1*
G37*
G36*
X2494667D2*
Y3591290D1*
X2493617Y3590391D1*
X2492944Y3590428D1*
X2490358Y3593014D1*
X2487773Y3594737D1*
X2482602Y3596461D1*
X2476569D1*
X2473984Y3595599D1*
X2470537Y3593875D1*
X2468813Y3592152D1*
X2466228Y3586981D1*
X2465366Y3583534D1*
Y3548199D1*
X2472260D1*
X2473122Y3581810D1*
X2473984Y3585257D1*
Y3586119D1*
X2475707Y3587843D1*
X2477431Y3588705D1*
X2480017Y3589566D1*
X2482602D1*
X2487773Y3587843D1*
X2491220Y3586119D1*
X2492944Y3584396D1*
X2494667Y3583534D1*
Y3548199D1*
X2501562D1*
Y3613697D1*
X2494667D1*
G37*
G36*
X2944533D2*
Y3575777D1*
X2943619Y3574841D1*
X2943173Y3574981D1*
X2942809Y3575777D1*
X2937638Y3581810D1*
X2925573Y3594737D1*
X2916093D1*
X2935053Y3575777D1*
Y3574916D1*
X2932467Y3572330D1*
X2915231Y3550785D1*
X2913507Y3548199D1*
X2922987D1*
X2924711Y3549923D1*
X2927296Y3553370D1*
X2930744Y3557679D1*
X2935915Y3564574D1*
X2939362Y3568883D1*
X2939540Y3569468D1*
X2940320Y3570239D1*
X2941085Y3570607D1*
X2944533Y3567159D1*
Y3548199D1*
X2951427D1*
Y3613697D1*
X2944533D1*
G37*
G36*
X3086732D2*
Y3591290D1*
X3085681Y3590391D1*
X3085008Y3590428D1*
X3082422Y3593014D1*
X3079837Y3594737D1*
X3074666Y3596461D1*
X3068633D1*
X3066048Y3595599D1*
X3062601Y3593875D1*
X3060877Y3592152D1*
X3058292Y3586981D1*
X3057430Y3583534D1*
Y3548199D1*
X3064324D1*
X3065186Y3581810D1*
X3066048Y3585257D1*
Y3586119D1*
X3067772Y3587843D1*
X3069495Y3588705D1*
X3072081Y3589566D1*
X3074666D1*
X3079837Y3587843D1*
X3083284Y3586119D1*
X3085008Y3584396D1*
X3086732Y3583534D1*
Y3548199D1*
X3093626D1*
Y3613697D1*
X3086732D1*
G37*
G36*
X3163433D2*
Y3548199D1*
X3170327D1*
Y3613697D1*
X3163433D1*
G37*
G36*
X1951726Y3561127D2*
X1951894Y3561738D1*
X1952588Y3562850D1*
X1953450Y3565436D1*
X1954312Y3569745D1*
Y3579225D1*
X1953450Y3582672D1*
X1952588Y3585257D1*
X1950865Y3588705D1*
X1946556Y3593014D1*
X1943108Y3594737D1*
X1940523Y3595599D1*
X1934490D1*
X1931905Y3594737D1*
X1930181Y3593875D1*
X1929130Y3592976D1*
X1928131Y3593087D1*
X1927314Y3594084D1*
X1927596Y3594737D1*
X1921563D1*
Y3558541D1*
X1918116Y3557679D1*
X1914669D1*
X1911221Y3558541D1*
X1910359Y3559403D1*
Y3561127D1*
X1909498Y3564574D1*
X1908636Y3573192D1*
X1907774Y3574054D1*
Y3575777D1*
X1908636Y3576639D1*
X1909498Y3584396D1*
X1910359Y3587843D1*
X1911221Y3590428D1*
X1912945Y3593875D1*
X1914669Y3596461D1*
Y3597323D1*
X1918978Y3601632D1*
X1925872Y3605079D1*
X1930181Y3605941D1*
X1934203Y3606803D1*
X1938225D1*
X1942246Y3605941D1*
X1945694Y3605079D1*
X1948279Y3604217D1*
X1950003Y3603355D1*
X1950865Y3602494D1*
X1953450Y3600770D1*
X1955174Y3599908D1*
X1958621Y3596461D1*
Y3595599D1*
X1962068Y3590428D1*
X1962930Y3588705D1*
X1963792Y3586119D1*
X1964654Y3582672D1*
X1965515Y3581810D1*
Y3568883D1*
X1964654Y3568021D1*
X1963792Y3563712D1*
X1962930Y3561127D1*
X1962068Y3559403D1*
X1960344Y3556818D1*
Y3555956D1*
X1953450Y3549061D1*
X1946556Y3545614D1*
X1942246Y3544752D1*
X1937650Y3543890D1*
X1933054D1*
X1928457Y3544752D1*
X1923287Y3545614D1*
X1922425D1*
Y3540443D1*
X1923287Y3539581D1*
X1929319Y3538720D1*
X1941385D1*
X1945694Y3539581D1*
X1950865Y3541305D1*
X1954312Y3543029D1*
X1956897Y3544752D1*
X1963792Y3551647D1*
X1965515Y3554232D1*
X1968101Y3559403D1*
X1969824Y3564574D1*
X1970686Y3568883D1*
Y3581810D1*
X1968963Y3588705D1*
X1965515Y3595599D1*
X1963792Y3598185D1*
X1956035Y3605941D1*
X1953450Y3607664D1*
X1948279Y3610250D1*
X1941385Y3611973D1*
X1931043D1*
X1926734Y3611112D1*
X1921563Y3609388D1*
X1918116Y3607664D1*
X1914669Y3605079D1*
X1912083Y3602494D1*
X1909498Y3599046D1*
X1907774Y3596461D1*
X1906912Y3594737D1*
X1906050Y3592152D1*
X1905189Y3590428D1*
X1904327Y3586981D1*
X1903465Y3582672D1*
Y3568883D1*
X1905189Y3561988D1*
X1908636Y3555094D1*
X1909498Y3554232D1*
X1926734D1*
Y3556818D1*
X1928457Y3558541D1*
X1929319D1*
X1931905Y3555956D1*
X1933628Y3555094D1*
X1936214Y3554232D1*
X1943108D1*
X1948279Y3556818D1*
X1950003Y3558541D1*
X1951726Y3561127D1*
X1941385D1*
X1939086Y3560265D1*
X1936788D1*
X1934490Y3561127D1*
X1929319Y3563712D1*
X1927596Y3565436D1*
Y3586981D1*
X1928457Y3587843D1*
X1930181Y3588705D1*
X1935352Y3590428D1*
X1937937D1*
X1940523Y3589566D1*
X1943970Y3587843D1*
X1944664Y3586730D1*
X1944832Y3586119D1*
X1946556Y3582672D1*
X1947417Y3578363D1*
X1948279Y3577501D1*
Y3572330D1*
X1947417Y3571468D1*
X1946556Y3566298D1*
X1945694Y3564574D1*
X1945410Y3563528D1*
X1944832Y3562850D1*
X1941385Y3561127D1*
X1951726D1*
G37*
G36*
X2718738D2*
X2718906Y3561738D1*
X2719600Y3562850D1*
X2720462Y3565436D1*
X2721324Y3569745D1*
Y3579225D1*
X2720462Y3582672D1*
X2719600Y3585257D1*
X2717876Y3588705D1*
X2713567Y3593014D1*
X2710120Y3594737D1*
X2707535Y3595599D1*
X2701502D1*
X2698917Y3594737D1*
X2697193Y3593875D1*
X2696142Y3592976D1*
X2695143Y3593087D1*
X2694326Y3594084D1*
X2694607Y3594737D1*
X2688575D1*
Y3558541D1*
X2685128Y3557679D1*
X2681680D1*
X2678233Y3558541D1*
X2677371Y3559403D1*
Y3561127D1*
X2676509Y3564574D1*
X2675648Y3573192D1*
X2674786Y3574054D1*
Y3575777D1*
X2675648Y3576639D1*
X2676509Y3584396D1*
X2677371Y3587843D1*
X2678233Y3590428D1*
X2679957Y3593875D1*
X2681680Y3596461D1*
Y3597323D1*
X2685989Y3601632D1*
X2692884Y3605079D1*
X2697193Y3605941D1*
X2701215Y3606803D1*
X2705236D1*
X2709258Y3605941D1*
X2712706Y3605079D1*
X2715291Y3604217D1*
X2717015Y3603355D1*
X2717876Y3602494D1*
X2720462Y3600770D1*
X2722185Y3599908D1*
X2725633Y3596461D1*
Y3595599D1*
X2729080Y3590428D1*
X2729942Y3588705D1*
X2730804Y3586119D1*
X2731665Y3582672D1*
X2732527Y3581810D1*
Y3568883D1*
X2731665Y3568021D1*
X2730804Y3563712D1*
X2729942Y3561127D1*
X2729080Y3559403D1*
X2727356Y3556818D1*
Y3555956D1*
X2720462Y3549061D1*
X2713567Y3545614D1*
X2709258Y3544752D1*
X2704662Y3543890D1*
X2700066D1*
X2695469Y3544752D1*
X2690298Y3545614D1*
X2689437D1*
Y3540443D1*
X2690298Y3539581D1*
X2696331Y3538720D1*
X2708396D1*
X2712706Y3539581D1*
X2717876Y3541305D1*
X2721324Y3543029D1*
X2723909Y3544752D1*
X2730804Y3551647D1*
X2732527Y3554232D1*
X2735113Y3559403D1*
X2736836Y3564574D1*
X2737698Y3568883D1*
Y3581810D1*
X2735974Y3588705D1*
X2732527Y3595599D1*
X2730804Y3598185D1*
X2723047Y3605941D1*
X2720462Y3607664D1*
X2715291Y3610250D1*
X2708396Y3611973D1*
X2698055D1*
X2693746Y3611112D1*
X2688575Y3609388D1*
X2685128Y3607664D1*
X2681680Y3605079D1*
X2679095Y3602494D1*
X2676509Y3599046D1*
X2674786Y3596461D1*
X2673924Y3594737D1*
X2673062Y3592152D1*
X2672200Y3590428D1*
X2671339Y3586981D1*
X2670477Y3582672D1*
Y3568883D1*
X2672200Y3561988D1*
X2675648Y3555094D1*
X2676509Y3554232D1*
X2693746D1*
Y3556818D1*
X2695469Y3558541D1*
X2696331D1*
X2698917Y3555956D1*
X2700640Y3555094D1*
X2703226Y3554232D1*
X2710120D1*
X2715291Y3556818D1*
X2717015Y3558541D1*
X2718738Y3561127D1*
X2708396D1*
X2706098Y3560265D1*
X2703800D1*
X2701502Y3561127D1*
X2696331Y3563712D1*
X2694607Y3565436D1*
Y3586981D1*
X2695469Y3587843D1*
X2697193Y3588705D1*
X2702364Y3590428D1*
X2704949D1*
X2707535Y3589566D1*
X2710982Y3587843D1*
X2711676Y3586730D1*
X2711844Y3586119D1*
X2713567Y3582672D1*
X2714429Y3578363D1*
X2715291Y3577501D1*
Y3572330D1*
X2714429Y3571468D1*
X2713567Y3566298D1*
X2712706Y3564574D1*
X2712422Y3563528D1*
X2711844Y3562850D1*
X2708396Y3561127D1*
X2718738D1*
G37*
G36*
X1699216Y3610250D2*
Y3602494D1*
X1706972D1*
Y3610250D1*
X1699216D1*
G37*
G36*
X2413657Y3577501D2*
X2412795Y3576639D1*
X2411072Y3573192D1*
X2410210Y3570607D1*
Y3562850D1*
X2411072Y3560265D1*
X2412795Y3556818D1*
X2417104Y3552509D1*
X2419690Y3550785D1*
X2421413Y3549923D1*
X2423999Y3549061D1*
X2428308Y3548199D1*
X2452439D1*
Y3610250D1*
X2426584D1*
X2423137Y3609388D1*
X2420552Y3608526D1*
X2418828Y3607664D1*
X2414519Y3603355D1*
X2427446D1*
X2433191Y3604217D1*
X2438937D1*
X2444682Y3603355D1*
Y3585257D1*
X2439224Y3584396D1*
X2433766D1*
X2428308Y3585257D1*
X2425722Y3586119D1*
X2424861Y3586981D1*
X2423137Y3587843D1*
X2422115Y3588812D1*
X2422275Y3589566D1*
X2421413Y3590428D1*
Y3599046D1*
X2424861Y3602494D1*
X2427446Y3603355D1*
X2414519D1*
X2413657Y3601632D1*
Y3591290D1*
X2414519Y3589566D1*
X2416243Y3586981D1*
X2417966Y3585257D1*
X2420552Y3583534D1*
X2422275Y3582672D1*
X2420552Y3581810D1*
X2417966Y3580948D1*
X2415381Y3579225D1*
X2413657Y3577501D1*
X2426584D1*
X2432617Y3578363D1*
X2438650D1*
X2444682Y3577501D1*
Y3555094D1*
X2439224Y3554232D1*
X2433766D1*
X2428308Y3555094D1*
X2423137Y3556818D1*
X2418828Y3561127D1*
Y3562850D1*
X2417966Y3563712D1*
Y3569745D1*
X2418828Y3570607D1*
Y3572330D1*
X2422275Y3575777D1*
X2423999Y3576639D1*
X2426584Y3577501D1*
X2413657D1*
G37*
G36*
X2583434Y3610250D2*
Y3602494D1*
X2591190D1*
Y3610250D1*
X2583434D1*
G37*
G36*
X2604117D2*
Y3548199D1*
X2611874D1*
Y3600770D1*
X2612517Y3601323D1*
X2612964Y3601273D1*
X2613597Y3600770D1*
Y3599046D1*
X2617044Y3592152D1*
X2617906Y3589566D1*
X2620492Y3584396D1*
X2621354Y3581810D1*
X2623939Y3576639D1*
X2624801Y3574054D1*
X2629110Y3565436D1*
X2633419D1*
X2634281Y3566298D1*
X2635143Y3568883D1*
X2637728Y3574054D1*
X2638590Y3576639D1*
X2641175Y3581810D1*
X2642037Y3584396D1*
X2644622Y3589566D1*
X2645484Y3592152D1*
X2648070Y3597323D1*
X2648932Y3599908D1*
X2649072Y3600575D1*
X2649601Y3601281D1*
X2650026Y3601261D1*
X2650655Y3600770D1*
Y3548199D1*
X2657550D1*
Y3610250D1*
X2647208D1*
X2646346Y3609388D1*
X2644622Y3605941D1*
X2643761Y3603355D1*
X2641175Y3598185D1*
X2640313Y3595599D1*
X2636866Y3588705D1*
X2636004Y3586119D1*
X2632557Y3579225D1*
X2631695Y3576639D1*
X2630781Y3575703D1*
X2630335Y3575843D1*
X2629972Y3576639D1*
X2629110Y3579225D1*
X2627386Y3582672D1*
X2626524Y3585257D1*
X2623939Y3590428D1*
X2623077Y3593014D1*
X2621354Y3596461D1*
X2620492Y3599046D1*
X2617906Y3604217D1*
X2617044Y3606803D1*
X2615321Y3610250D1*
X2604117D1*
G37*
G36*
X3228069D2*
Y3602494D1*
X3235825D1*
Y3610250D1*
X3228069D1*
G37*
G36*
X2563612Y3608526D2*
Y3595599D1*
X2548961Y3594737D1*
Y3588705D1*
X2563612Y3587843D1*
Y3558541D1*
X2562750Y3557679D1*
Y3556818D1*
X2561027Y3555094D1*
X2559303Y3554232D1*
X2556718Y3553370D1*
X2554132D1*
X2548961Y3555094D1*
Y3548199D1*
X2553270Y3547338D1*
X2561027D1*
X2563612Y3548199D1*
X2565336Y3549061D1*
X2568783Y3552509D1*
X2569645Y3554232D1*
X2570507Y3556818D1*
Y3587843D1*
X2575678Y3588705D1*
Y3594737D1*
X2570507Y3595599D1*
Y3608526D1*
X2563612D1*
G37*
G36*
X2834221D2*
Y3595599D1*
X2819570Y3594737D1*
Y3588705D1*
X2834221Y3587843D1*
Y3558541D1*
X2833359Y3557679D1*
Y3556818D1*
X2831635Y3555094D1*
X2829912Y3554232D1*
X2827326Y3553370D1*
X2824741D1*
X2819570Y3555094D1*
Y3548199D1*
X2823879Y3547338D1*
X2831635D1*
X2834221Y3548199D1*
X2835944Y3549061D1*
X2839392Y3552509D1*
X2840254Y3554232D1*
X2841115Y3556818D1*
Y3587843D1*
X2846286Y3588705D1*
Y3594737D1*
X2841115Y3595599D1*
Y3608526D1*
X2834221D1*
G37*
G36*
X3115171D2*
Y3595599D1*
X3100520Y3594737D1*
Y3588705D1*
X3115171Y3587843D1*
Y3558541D1*
X3114309Y3557679D1*
Y3556818D1*
X3112586Y3555094D1*
X3110862Y3554232D1*
X3108277Y3553370D1*
X3105691D1*
X3100520Y3555094D1*
Y3548199D1*
X3104830Y3547338D1*
X3112586D1*
X3115171Y3548199D1*
X3116895Y3549061D1*
X3120342Y3552509D1*
X3121204Y3554232D1*
X3122066Y3556818D1*
Y3587843D1*
X3127237Y3588705D1*
Y3594737D1*
X3122066Y3595599D1*
Y3608526D1*
X3115171D1*
G37*
G36*
X1762128Y3571468D2*
Y3548199D1*
X1769022D1*
Y3551647D1*
X1769943Y3552222D1*
X1770746Y3552509D1*
X1773332Y3549923D1*
X1775917Y3548199D1*
X1781088Y3546476D1*
X1787982D1*
X1790568Y3547338D1*
X1792291Y3548199D1*
X1796600Y3552509D1*
X1798324Y3555956D1*
X1799186Y3558541D1*
Y3563712D1*
X1798324Y3567159D1*
X1796600Y3570607D1*
X1794015Y3573192D1*
X1788844Y3575777D1*
X1786259Y3576639D1*
X1782811Y3577501D1*
X1775055Y3578363D1*
X1769022Y3579225D1*
Y3583534D1*
X1769884Y3584396D1*
X1770746Y3586119D1*
X1770914Y3586730D1*
X1771608Y3587843D1*
X1775055Y3589566D1*
X1778790Y3590428D1*
X1782524D1*
X1786259Y3589566D1*
X1789706Y3588705D1*
X1794877Y3586981D1*
Y3594737D1*
X1791430Y3595599D1*
X1786259Y3596461D1*
X1775055D1*
X1771608Y3595599D1*
X1768161Y3593875D1*
X1765575Y3592152D1*
X1763852Y3589566D1*
X1762990Y3587843D1*
X1762128Y3584396D1*
Y3571468D1*
X1769022D1*
X1771033Y3572330D1*
X1773044D1*
X1775055Y3571468D1*
X1781950Y3570607D1*
X1785397Y3569745D1*
X1788844Y3568021D1*
X1790568Y3566298D1*
Y3565436D1*
X1791430Y3564574D1*
Y3558541D1*
X1790568Y3557679D1*
Y3556818D1*
X1788844Y3555094D1*
X1786259Y3554232D1*
X1783386Y3553370D1*
X1780513D1*
X1777641Y3554232D1*
X1775055Y3555094D1*
X1773332Y3555956D1*
X1772470Y3556818D1*
X1770746Y3557679D1*
X1769022Y3559403D1*
Y3571468D1*
X1762128D1*
G37*
G36*
X1858651Y3589566D2*
X1856927Y3587843D1*
X1854342Y3582672D1*
X1853480Y3579225D1*
Y3563712D1*
X1854342Y3560265D1*
X1856927Y3555094D1*
X1858651Y3552509D1*
X1860374Y3550785D1*
X1862960Y3549061D1*
X1866407Y3547338D1*
X1869854Y3546476D1*
X1877611D1*
X1881058Y3547338D1*
X1886229Y3549923D1*
X1889676Y3553370D1*
X1891400Y3555956D1*
X1893123Y3559403D1*
X1893985Y3562850D1*
X1894847Y3567159D1*
Y3575777D1*
X1893985Y3580086D1*
X1893123Y3583534D1*
X1891400Y3586981D1*
X1889676Y3589566D1*
X1887091Y3592152D1*
X1884505Y3593875D1*
X1881058Y3595599D1*
X1877611Y3596461D1*
X1869854D1*
X1866407Y3595599D1*
X1862960Y3593875D1*
X1860374Y3592152D1*
X1858651Y3590428D1*
Y3589566D1*
X1869854D1*
X1872727Y3590428D1*
X1875600D1*
X1878472Y3589566D1*
X1881920Y3587843D1*
X1884505Y3585257D1*
Y3584396D1*
X1885367Y3582672D1*
X1886229Y3579225D1*
X1887091Y3578363D1*
Y3564574D1*
X1886229Y3563712D1*
X1885367Y3560265D1*
X1883643Y3557679D1*
Y3556818D1*
X1881920Y3555094D1*
X1880196Y3554232D1*
X1875025Y3552509D1*
X1872440D1*
X1867269Y3554232D1*
X1862960Y3558541D1*
Y3559403D1*
X1862098Y3561127D1*
X1861236Y3564574D1*
X1860374Y3565436D1*
Y3577501D1*
X1861236Y3578363D1*
X1862098Y3581810D1*
X1863822Y3585257D1*
X1863989Y3585868D1*
X1864683Y3586981D1*
X1869854Y3589566D1*
X1858651D1*
G37*
G36*
X2069794Y3596461D2*
X2067209Y3595599D1*
X2063762Y3593875D1*
X2062038Y3592152D1*
X2059453Y3586981D1*
X2058591Y3583534D1*
Y3548199D1*
X2065485D1*
X2066347Y3581810D1*
X2067209Y3585257D1*
Y3586119D1*
X2068933Y3587843D1*
X2070656Y3588705D1*
X2073242Y3589566D1*
X2075827D1*
X2080998Y3587843D1*
X2084445Y3586119D1*
X2086169Y3584396D1*
X2087893Y3583534D1*
Y3548199D1*
X2094787D1*
Y3594737D1*
X2087893D1*
Y3591290D1*
X2086842Y3590391D1*
X2086169Y3590428D1*
X2083583Y3593014D1*
X2080998Y3594737D1*
X2075827Y3596461D1*
X2069794D1*
G37*
G36*
X2106852Y3571468D2*
Y3548199D1*
X2113747D1*
Y3551647D1*
X2114668Y3552222D1*
X2115470Y3552509D1*
X2118056Y3549923D1*
X2120641Y3548199D1*
X2125812Y3546476D1*
X2132707D1*
X2135292Y3547338D1*
X2137016Y3548199D1*
X2141325Y3552509D1*
X2143048Y3555956D1*
X2143910Y3558541D1*
Y3563712D1*
X2143048Y3567159D1*
X2141325Y3570607D1*
X2138739Y3573192D1*
X2133569Y3575777D1*
X2130983Y3576639D1*
X2127536Y3577501D1*
X2119780Y3578363D1*
X2113747Y3579225D1*
Y3583534D1*
X2114609Y3584396D1*
X2115470Y3586119D1*
X2115638Y3586730D1*
X2116332Y3587843D1*
X2119780Y3589566D1*
X2123514Y3590428D1*
X2127249D1*
X2130983Y3589566D1*
X2134430Y3588705D1*
X2139601Y3586981D1*
Y3594737D1*
X2136154Y3595599D1*
X2130983Y3596461D1*
X2119780D1*
X2116332Y3595599D1*
X2112885Y3593875D1*
X2110300Y3592152D1*
X2108576Y3589566D1*
X2107714Y3587843D1*
X2106852Y3584396D1*
Y3571468D1*
X2113747D1*
X2115758Y3572330D1*
X2117769D1*
X2119780Y3571468D1*
X2126674Y3570607D1*
X2130121Y3569745D1*
X2133569Y3568021D1*
X2135292Y3566298D1*
Y3565436D1*
X2136154Y3564574D1*
Y3558541D1*
X2135292Y3557679D1*
Y3556818D1*
X2133569Y3555094D1*
X2130983Y3554232D1*
X2128110Y3553370D1*
X2125238D1*
X2122365Y3554232D1*
X2119780Y3555094D1*
X2118056Y3555956D1*
X2117194Y3556818D1*
X2115470Y3557679D1*
X2113747Y3559403D1*
Y3571468D1*
X2106852D1*
G37*
G36*
X2224059Y3589566D2*
X2222335Y3587843D1*
X2221473Y3586119D1*
X2220611Y3583534D1*
X2219750Y3577501D1*
Y3571468D1*
X2252498Y3569745D1*
Y3564574D1*
X2251637Y3563712D1*
X2250775Y3561127D1*
Y3560265D1*
X2247328Y3556818D1*
X2243880Y3555094D1*
X2241295Y3554232D1*
X2238135Y3553370D1*
X2234975D1*
X2231815Y3554232D1*
X2228368Y3555094D1*
X2223197Y3557679D1*
X2222335Y3558541D1*
X2220611Y3559403D1*
Y3551647D1*
X2221473Y3550785D1*
X2223197Y3549923D1*
X2228368Y3548199D1*
X2231815Y3547338D1*
X2241295D1*
X2245604Y3548199D1*
X2250775Y3550785D1*
X2253360Y3552509D1*
X2254222Y3553370D1*
X2256807Y3556818D1*
X2258531Y3560265D1*
X2259393Y3562850D1*
X2260255Y3567159D1*
Y3575777D1*
X2259393Y3580086D1*
X2258531Y3582672D1*
X2255946Y3587843D1*
X2250775Y3593014D1*
X2248189Y3594737D1*
X2243019Y3596461D1*
X2234400D1*
X2230953Y3595599D1*
X2229230Y3594737D1*
X2226644Y3593014D1*
X2224059Y3590428D1*
Y3589566D1*
X2234400D1*
X2237560Y3590428D1*
X2240720D1*
X2243880Y3589566D1*
X2247328Y3587843D1*
X2250775Y3584396D1*
Y3583534D1*
X2251637Y3581810D1*
X2252498Y3580948D1*
Y3577501D1*
X2243880Y3576639D1*
X2235262D1*
X2226644Y3577501D1*
Y3579225D1*
X2227506Y3580086D1*
X2228368Y3583534D1*
X2229230Y3585257D1*
Y3586119D1*
X2230953Y3587843D1*
X2234400Y3589566D1*
X2224059D1*
G37*
G36*
X2336956Y3571468D2*
Y3548199D1*
X2343850D1*
Y3551647D1*
X2344771Y3552222D1*
X2345574Y3552509D1*
X2348159Y3549923D1*
X2350745Y3548199D1*
X2355916Y3546476D1*
X2362810D1*
X2365396Y3547338D1*
X2367119Y3548199D1*
X2371428Y3552509D1*
X2373152Y3555956D1*
X2374014Y3558541D1*
Y3563712D1*
X2373152Y3567159D1*
X2371428Y3570607D1*
X2368843Y3573192D1*
X2363672Y3575777D1*
X2361087Y3576639D1*
X2357639Y3577501D1*
X2349883Y3578363D1*
X2343850Y3579225D1*
Y3583534D1*
X2344712Y3584396D1*
X2345574Y3586119D1*
X2345742Y3586730D1*
X2346436Y3587843D1*
X2349883Y3589566D1*
X2353618Y3590428D1*
X2357352D1*
X2361087Y3589566D1*
X2364534Y3588705D1*
X2369705Y3586981D1*
Y3594737D1*
X2366257Y3595599D1*
X2361087Y3596461D1*
X2349883D1*
X2346436Y3595599D1*
X2342989Y3593875D1*
X2340403Y3592152D1*
X2338680Y3589566D1*
X2337818Y3587843D1*
X2336956Y3584396D1*
Y3571468D1*
X2343850D1*
X2345861Y3572330D1*
X2347872D1*
X2349883Y3571468D1*
X2356778Y3570607D1*
X2360225Y3569745D1*
X2363672Y3568021D1*
X2365396Y3566298D1*
Y3565436D1*
X2366257Y3564574D1*
Y3558541D1*
X2365396Y3557679D1*
Y3556818D1*
X2363672Y3555094D1*
X2361087Y3554232D1*
X2358214Y3553370D1*
X2355341D1*
X2352469Y3554232D1*
X2349883Y3555094D1*
X2348159Y3555956D1*
X2347298Y3556818D1*
X2345574Y3557679D1*
X2343850Y3559403D1*
Y3571468D1*
X2336956D1*
G37*
G36*
X2518798Y3596461D2*
X2511042Y3593875D1*
X2509318Y3593014D1*
Y3584396D1*
X2511042Y3585257D1*
X2513627Y3586981D1*
X2514489Y3587843D1*
X2522245Y3590428D1*
X2524831D1*
X2530002Y3588705D1*
X2531725Y3587843D1*
X2535172Y3584396D1*
Y3583534D1*
X2536034Y3581810D1*
X2536896Y3579225D1*
X2537758Y3578363D1*
Y3565436D1*
X2536896Y3564574D1*
X2536034Y3561988D1*
X2535172Y3560265D1*
Y3559403D1*
X2531725Y3555956D1*
X2528278Y3554232D1*
X2525118Y3553370D1*
X2521958D1*
X2518798Y3554232D1*
X2516213Y3555094D1*
X2512765Y3556818D1*
X2511042Y3558541D1*
X2509318Y3559403D1*
Y3551647D1*
X2511042Y3549923D1*
X2516213Y3548199D1*
X2519660Y3547338D1*
X2527416D1*
X2530863Y3548199D1*
X2533449Y3549061D1*
X2535172Y3549923D1*
X2537758Y3551647D1*
X2540343Y3554232D1*
X2542067Y3556818D1*
X2543791Y3560265D1*
X2544652Y3562850D1*
X2545514Y3568021D1*
Y3574916D1*
X2544652Y3580086D1*
X2543791Y3582672D1*
X2541205Y3587843D1*
X2536034Y3593014D1*
X2533449Y3594737D1*
X2530863Y3595599D1*
X2527416Y3596461D1*
X2518798D1*
G37*
G36*
X2779927Y3589566D2*
X2778203Y3587843D1*
X2775618Y3582672D1*
X2774756Y3579225D1*
Y3563712D1*
X2775618Y3560265D1*
X2778203Y3555094D1*
X2779927Y3552509D1*
X2781650Y3550785D1*
X2784236Y3549061D1*
X2787683Y3547338D1*
X2791130Y3546476D1*
X2798887D1*
X2802334Y3547338D1*
X2807505Y3549923D1*
X2810952Y3553370D1*
X2812676Y3555956D1*
X2814399Y3559403D1*
X2815261Y3562850D1*
X2816123Y3567159D1*
Y3575777D1*
X2815261Y3580086D1*
X2814399Y3583534D1*
X2812676Y3586981D1*
X2810952Y3589566D1*
X2808367Y3592152D1*
X2805781Y3593875D1*
X2802334Y3595599D1*
X2798887Y3596461D1*
X2791130D1*
X2787683Y3595599D1*
X2784236Y3593875D1*
X2781650Y3592152D1*
X2779927Y3590428D1*
Y3589566D1*
X2791130D1*
X2794003Y3590428D1*
X2796876D1*
X2799748Y3589566D1*
X2803196Y3587843D1*
X2805781Y3585257D1*
Y3584396D1*
X2806643Y3582672D1*
X2807505Y3579225D1*
X2808367Y3578363D1*
Y3564574D1*
X2807505Y3563712D1*
X2806643Y3560265D1*
X2804919Y3557679D1*
Y3556818D1*
X2803196Y3555094D1*
X2801472Y3554232D1*
X2796301Y3552509D1*
X2793716D1*
X2788545Y3554232D1*
X2784236Y3558541D1*
Y3559403D1*
X2783374Y3561127D1*
X2782512Y3564574D1*
X2781650Y3565436D1*
Y3577501D1*
X2782512Y3578363D1*
X2783374Y3581810D1*
X2785098Y3585257D1*
X2785265Y3585868D1*
X2785959Y3586981D1*
X2791130Y3589566D1*
X2779927D1*
G37*
G36*
X2889377Y3596461D2*
X2885068Y3595599D1*
X2882482Y3594737D1*
X2880759Y3593875D1*
X2879897Y3593014D1*
Y3585257D1*
X2880759Y3586119D1*
X2885930Y3588705D1*
X2889377Y3589566D1*
X2892249Y3590428D1*
X2895122D1*
X2897995Y3589566D1*
X2900580Y3588705D1*
X2903166Y3586119D1*
Y3585257D1*
X2904028Y3584396D1*
Y3582672D1*
X2903166Y3581810D1*
Y3580086D1*
X2901442Y3578363D1*
X2897995Y3576639D1*
X2893686Y3575777D1*
X2886791Y3574054D1*
X2884206Y3573192D1*
X2881620Y3571468D1*
X2879897Y3569745D1*
X2878173Y3566298D1*
Y3557679D1*
X2879897Y3554232D1*
X2884206Y3549923D1*
X2887653Y3548199D1*
X2891100Y3547338D1*
X2900580D1*
X2904028Y3548199D1*
X2909198Y3549923D1*
X2910922Y3550785D1*
Y3559403D1*
X2908337Y3557679D1*
X2907475Y3556818D1*
X2905751Y3555956D1*
X2900580Y3554232D1*
X2897420Y3553370D1*
X2894260D1*
X2891100Y3554232D1*
X2888515Y3555094D1*
X2886791Y3555956D1*
X2885769Y3556925D1*
X2885930Y3557679D1*
X2885068Y3558541D1*
Y3562850D1*
X2885930Y3563712D1*
X2886097Y3564323D1*
X2886791Y3565436D1*
X2888515Y3566298D1*
X2891100Y3567159D1*
X2901442Y3569745D1*
X2904028Y3570607D1*
X2906613Y3572330D1*
X2909198Y3574916D1*
X2910060Y3576639D1*
X2910922Y3579225D1*
Y3585257D1*
X2910060Y3587843D1*
X2909198Y3589566D1*
X2904889Y3593875D1*
X2901442Y3595599D1*
X2897995Y3596461D1*
X2889377D1*
G37*
G36*
X2974696D2*
X2972111Y3595599D1*
X2968663Y3593875D1*
X2966940Y3592152D1*
X2964354Y3586981D1*
X2963493Y3583534D1*
Y3548199D1*
X2970387D1*
X2971249Y3581810D1*
X2972111Y3585257D1*
Y3586119D1*
X2973834Y3587843D1*
X2975558Y3588705D1*
X2978143Y3589566D1*
X2980729D1*
X2985900Y3587843D1*
X2989347Y3586119D1*
X2991070Y3584396D1*
X2992794Y3583534D1*
Y3548199D1*
X2999689D1*
Y3594737D1*
X2992794D1*
Y3591290D1*
X2991743Y3590391D1*
X2991070Y3590428D1*
X2988485Y3593014D1*
X2985900Y3594737D1*
X2980729Y3596461D1*
X2974696D1*
G37*
G36*
X3011754Y3571468D2*
Y3548199D1*
X3018648D1*
Y3551647D1*
X3019569Y3552222D1*
X3020372Y3552509D1*
X3022957Y3549923D1*
X3025543Y3548199D1*
X3030714Y3546476D1*
X3037608D1*
X3040194Y3547338D1*
X3041917Y3548199D1*
X3046226Y3552509D1*
X3047950Y3555956D1*
X3048812Y3558541D1*
Y3563712D1*
X3047950Y3567159D1*
X3046226Y3570607D1*
X3043641Y3573192D1*
X3038470Y3575777D1*
X3035885Y3576639D1*
X3032437Y3577501D1*
X3024681Y3578363D1*
X3018648Y3579225D1*
Y3583534D1*
X3019510Y3584396D1*
X3020372Y3586119D1*
X3020540Y3586730D1*
X3021234Y3587843D1*
X3024681Y3589566D1*
X3028416Y3590428D1*
X3032150D1*
X3035885Y3589566D1*
X3039332Y3588705D1*
X3044503Y3586981D1*
Y3594737D1*
X3041056Y3595599D1*
X3035885Y3596461D1*
X3024681D1*
X3021234Y3595599D1*
X3017787Y3593875D1*
X3015201Y3592152D1*
X3013478Y3589566D1*
X3012616Y3587843D1*
X3011754Y3584396D1*
Y3571468D1*
X3018648D1*
X3020659Y3572330D1*
X3022670D1*
X3024681Y3571468D1*
X3031576Y3570607D1*
X3035023Y3569745D1*
X3038470Y3568021D1*
X3040194Y3566298D1*
Y3565436D1*
X3041056Y3564574D1*
Y3558541D1*
X3040194Y3557679D1*
Y3556818D1*
X3038470Y3555094D1*
X3035885Y3554232D1*
X3033012Y3553370D1*
X3030139D1*
X3027267Y3554232D1*
X3024681Y3555094D1*
X3022957Y3555956D1*
X3022096Y3556818D1*
X3020372Y3557679D1*
X3018648Y3559403D1*
Y3571468D1*
X3011754D1*
G37*
G36*
X3182393D2*
Y3548199D1*
X3189287D1*
Y3551647D1*
X3190208Y3552222D1*
X3191011Y3552509D1*
X3193596Y3549923D1*
X3196182Y3548199D1*
X3201352Y3546476D1*
X3208247D1*
X3210832Y3547338D1*
X3212556Y3548199D1*
X3216865Y3552509D1*
X3218589Y3555956D1*
X3219450Y3558541D1*
Y3563712D1*
X3218589Y3567159D1*
X3216865Y3570607D1*
X3214280Y3573192D1*
X3209109Y3575777D1*
X3206523Y3576639D1*
X3203076Y3577501D1*
X3195320Y3578363D1*
X3189287Y3579225D1*
Y3583534D1*
X3190149Y3584396D1*
X3191011Y3586119D1*
X3191178Y3586730D1*
X3191872Y3587843D1*
X3195320Y3589566D1*
X3199054Y3590428D1*
X3202789D1*
X3206523Y3589566D1*
X3209970Y3588705D1*
X3215141Y3586981D1*
Y3594737D1*
X3211694Y3595599D1*
X3206523Y3596461D1*
X3195320D1*
X3191872Y3595599D1*
X3188425Y3593875D1*
X3185840Y3592152D1*
X3184116Y3589566D1*
X3183254Y3587843D1*
X3182393Y3584396D1*
Y3571468D1*
X3189287D1*
X3191298Y3572330D1*
X3193309D1*
X3195320Y3571468D1*
X3202214Y3570607D1*
X3205661Y3569745D1*
X3209109Y3568021D1*
X3210832Y3566298D1*
Y3565436D1*
X3211694Y3564574D1*
Y3558541D1*
X3210832Y3557679D1*
Y3556818D1*
X3209109Y3555094D1*
X3206523Y3554232D1*
X3203651Y3553370D1*
X3200778D1*
X3197905Y3554232D1*
X3195320Y3555094D1*
X3193596Y3555956D1*
X3192734Y3556818D1*
X3191011Y3557679D1*
X3189287Y3559403D1*
Y3571468D1*
X3182393D1*
G37*
G36*
X3253061Y3596461D2*
X3245305Y3593875D1*
X3243581Y3593014D1*
Y3584396D1*
X3245305Y3585257D1*
X3247890Y3586981D1*
X3248752Y3587843D1*
X3256508Y3590428D1*
X3259094D1*
X3264265Y3588705D1*
X3265988Y3587843D1*
X3269435Y3584396D1*
Y3583534D1*
X3270297Y3581810D1*
X3271159Y3579225D1*
X3272021Y3578363D1*
Y3565436D1*
X3271159Y3564574D1*
X3270297Y3561988D1*
X3269435Y3560265D1*
Y3559403D1*
X3265988Y3555956D1*
X3262541Y3554232D1*
X3259381Y3553370D1*
X3256221D1*
X3253061Y3554232D1*
X3250476Y3555094D1*
X3247028Y3556818D1*
X3245305Y3558541D1*
X3243581Y3559403D1*
Y3551647D1*
X3245305Y3549923D1*
X3250476Y3548199D1*
X3253923Y3547338D1*
X3261679D1*
X3265126Y3548199D1*
X3267712Y3549061D1*
X3269435Y3549923D1*
X3272021Y3551647D1*
X3274606Y3554232D1*
X3276330Y3556818D1*
X3278054Y3560265D1*
X3278915Y3562850D1*
X3279777Y3568021D1*
Y3574916D1*
X3278915Y3580086D1*
X3278054Y3582672D1*
X3275468Y3587843D1*
X3270297Y3593014D1*
X3267712Y3594737D1*
X3265126Y3595599D1*
X3261679Y3596461D1*
X3253061D1*
G37*
G36*
X3289257Y3589566D2*
X3287533Y3587843D1*
X3286672Y3586119D1*
X3285810Y3583534D1*
X3284948Y3577501D1*
Y3571468D1*
X3317697Y3569745D1*
Y3564574D1*
X3316835Y3563712D1*
X3315973Y3561127D1*
Y3560265D1*
X3312526Y3556818D1*
X3309079Y3555094D1*
X3306493Y3554232D1*
X3303333Y3553370D1*
X3300173D1*
X3297013Y3554232D1*
X3293566Y3555094D1*
X3288395Y3557679D1*
X3287533Y3558541D1*
X3285810Y3559403D1*
Y3551647D1*
X3286672Y3550785D1*
X3288395Y3549923D1*
X3293566Y3548199D1*
X3297013Y3547338D1*
X3306493D1*
X3310802Y3548199D1*
X3315973Y3550785D1*
X3318559Y3552509D1*
X3319420Y3553370D1*
X3322006Y3556818D1*
X3323730Y3560265D1*
X3324591Y3562850D1*
X3325453Y3567159D1*
Y3575777D1*
X3324591Y3580086D1*
X3323730Y3582672D1*
X3321144Y3587843D1*
X3315973Y3593014D1*
X3313388Y3594737D1*
X3308217Y3596461D1*
X3299599D1*
X3296152Y3595599D1*
X3294428Y3594737D1*
X3291843Y3593014D1*
X3289257Y3590428D1*
Y3589566D1*
X3299599D1*
X3302759Y3590428D1*
X3305919D1*
X3309079Y3589566D1*
X3312526Y3587843D1*
X3315973Y3584396D1*
Y3583534D1*
X3316835Y3581810D1*
X3317697Y3580948D1*
Y3577501D1*
X3309079Y3576639D1*
X3300461D1*
X3291843Y3577501D1*
Y3579225D1*
X3292704Y3580086D1*
X3293566Y3583534D1*
X3294428Y3585257D1*
Y3586119D1*
X3296152Y3587843D1*
X3299599Y3589566D1*
X3289257D1*
G37*
G36*
X3334933Y3588705D2*
X3334071Y3587843D1*
X3332348Y3584396D1*
X3331486Y3580948D1*
Y3565436D1*
X3332348Y3561988D1*
X3333209Y3559403D1*
X3334071Y3557679D1*
X3335795Y3555094D1*
X3340966Y3549923D1*
X3344413Y3548199D1*
X3346998Y3547338D1*
X3354755D1*
X3358202Y3548199D1*
X3361649Y3549923D1*
X3362293Y3550477D1*
X3362739Y3550426D1*
X3363373Y3549923D1*
Y3530963D1*
X3370267D1*
Y3594737D1*
X3363373D1*
Y3591290D1*
X3362459Y3590354D1*
X3362013Y3590494D1*
X3361649Y3591290D1*
X3356478Y3594737D1*
X3354755Y3595599D1*
X3351307Y3596461D1*
X3344413D1*
X3341828Y3595599D1*
X3340104Y3594737D1*
X3334933Y3589566D1*
Y3588705D1*
X3346137D1*
X3348722Y3589566D1*
X3351307D1*
X3356478Y3587843D1*
X3359926Y3586119D1*
X3360787Y3585257D1*
X3362511Y3584396D1*
X3363373Y3583534D1*
Y3556818D1*
X3362511Y3555956D1*
X3357340Y3554232D1*
X3354180Y3553370D1*
X3351020D1*
X3347860Y3554232D1*
X3344413Y3555956D1*
X3340966Y3559403D1*
Y3560265D1*
X3340104Y3561988D1*
X3339242Y3565436D1*
X3338380Y3566298D1*
Y3577501D1*
X3339242Y3578363D1*
X3340104Y3581810D1*
X3341828Y3585257D1*
X3341995Y3585868D1*
X3342689Y3586981D1*
X3346137Y3588705D1*
X3334933D1*
G37*
G36*
X3390089Y3596461D2*
X3385780Y3595599D1*
X3383194Y3594737D1*
X3381471Y3593875D1*
X3380609Y3593014D1*
Y3585257D1*
X3381471Y3586119D1*
X3386642Y3588705D1*
X3390089Y3589566D1*
X3392962Y3590428D1*
X3395834D1*
X3398707Y3589566D1*
X3401293Y3588705D1*
X3403878Y3586119D1*
Y3585257D1*
X3404740Y3584396D1*
Y3582672D1*
X3403878Y3581810D1*
Y3580086D1*
X3402154Y3578363D1*
X3398707Y3576639D1*
X3394398Y3575777D1*
X3387504Y3574054D1*
X3384918Y3573192D1*
X3382333Y3571468D1*
X3380609Y3569745D1*
X3378885Y3566298D1*
Y3557679D1*
X3380609Y3554232D1*
X3384918Y3549923D1*
X3388365Y3548199D1*
X3391813Y3547338D1*
X3401293D1*
X3404740Y3548199D1*
X3409911Y3549923D1*
X3411634Y3550785D1*
Y3559403D1*
X3409049Y3557679D1*
X3408187Y3556818D1*
X3406463Y3555956D1*
X3401293Y3554232D1*
X3398133Y3553370D1*
X3394973D1*
X3391813Y3554232D1*
X3389227Y3555094D1*
X3387504Y3555956D1*
X3386482Y3556925D1*
X3386642Y3557679D1*
X3385780Y3558541D1*
Y3562850D1*
X3386642Y3563712D1*
X3386809Y3564323D1*
X3387504Y3565436D1*
X3389227Y3566298D1*
X3391813Y3567159D1*
X3402154Y3569745D1*
X3404740Y3570607D1*
X3407325Y3572330D1*
X3409911Y3574916D1*
X3410772Y3576639D1*
X3411634Y3579225D1*
Y3585257D1*
X3410772Y3587843D1*
X3409911Y3589566D1*
X3405602Y3593875D1*
X3402154Y3595599D1*
X3398707Y3596461D1*
X3390089D1*
G37*
G36*
X1700078Y3594737D2*
Y3548199D1*
X1706972D1*
Y3594737D1*
X1700078D1*
G37*
G36*
X2174935D2*
X2175797Y3593875D1*
Y3592152D1*
X2176659Y3590428D1*
X2177521Y3587843D1*
X2178383Y3586119D1*
X2179244Y3583534D1*
X2180106Y3581810D1*
X2181830Y3576639D1*
X2182692Y3574916D1*
X2183554Y3572330D1*
X2184415Y3570607D1*
X2185277Y3568021D1*
X2186139Y3566298D1*
X2187001Y3563712D1*
X2187863Y3561988D1*
X2188724Y3559403D1*
X2189586Y3557679D1*
X2191310Y3552509D1*
X2192172Y3550785D1*
X2193033Y3548199D1*
X2193895Y3546476D1*
X2194757Y3543890D1*
X2195619Y3542167D1*
X2196481Y3539581D1*
X2197343Y3537858D1*
X2198204Y3535272D1*
X2199066Y3533549D1*
X2199928Y3530963D1*
X2207684D1*
Y3531825D1*
X2205961Y3535272D1*
X2205099Y3537858D1*
X2203375Y3541305D1*
X2202513Y3543890D1*
X2200790Y3547338D1*
X2199928Y3548199D1*
Y3552509D1*
X2200790Y3553370D1*
X2201652Y3555094D1*
X2203375Y3560265D1*
X2204237Y3561988D1*
X2205961Y3567159D1*
X2206822Y3568883D1*
X2207684Y3571468D1*
X2208546Y3573192D1*
X2210270Y3578363D1*
X2211132Y3580086D1*
X2212855Y3585257D1*
X2213717Y3586981D1*
X2214579Y3589566D1*
X2215441Y3591290D1*
X2216302Y3593875D1*
Y3594737D1*
X2208546D1*
X2206822Y3589566D1*
X2205961Y3587843D1*
X2204237Y3582672D1*
X2203375Y3580948D1*
X2200790Y3573192D1*
X2199928Y3571468D1*
X2198204Y3566298D1*
X2197343Y3564574D1*
X2196481Y3561988D1*
X2196262Y3560972D1*
X2195569Y3560185D1*
X2195124Y3560329D1*
X2194569Y3561278D1*
X2194757Y3561988D1*
X2193033Y3567159D1*
X2192172Y3568883D1*
X2190448Y3574054D1*
X2189586Y3575777D1*
X2187001Y3583534D1*
X2186139Y3585257D1*
X2184415Y3590428D1*
X2183554Y3592152D1*
X2182692Y3594737D1*
X2174935D1*
G37*
G36*
X2377461D2*
Y3586981D1*
X2386079Y3586119D1*
X2388665Y3585257D1*
X2390388Y3584396D1*
X2391250Y3583534D1*
X2392974Y3582672D1*
X2394697Y3580948D1*
Y3548199D1*
X2401592D1*
Y3594737D1*
X2394697D1*
Y3588705D1*
X2393783Y3587769D1*
X2393337Y3587909D1*
X2392974Y3588705D1*
X2391250Y3590428D1*
X2388665Y3592152D1*
X2385217Y3593875D1*
X2382632Y3594737D1*
X2377461D1*
G37*
G36*
X2584296D2*
Y3548199D1*
X2591190D1*
Y3594737D1*
X2584296D1*
G37*
G36*
X3228930D2*
Y3548199D1*
X3235825D1*
Y3594737D1*
X3228930D1*
G37*
M02*
