M48
INCH
T01C0.0191
T02C0.0354
T03C0.0394
T04C0.046
T05C0.0551
T06C0.063
T07C0.1378
T08C0.14
%
T01
X+020440Y+016957
X+021440Y+019717
X+020440Y+022217
X+019502Y+022217
X+018440Y+022217
X+017440Y+022217
X+013690Y+020592
X+013440Y+018717
X+012940Y+016342
X+011690Y+016842
X+009878Y+019279
X+009878Y+020092
X+009815Y+020654
X+009628Y+021467
X+008315Y+020967
X+008440Y+019833
X+008565Y+017404
X+011690Y+021467
X+010940Y+023154
X+009877Y+023154
X+008190Y+022717
X+005377Y+022717
X+006825Y+029394
X+007440Y+029967
X+008440Y+029717
X+009440Y+030154
X+010190Y+030529
X+011127Y+031654
X+012127Y+031279
X+011940Y+030154
X+011018Y+029029
X+014375Y+029717
X+015440Y+030154
X+013940Y+030904
X+013940Y+032779
X+012877Y+033154
X+011940Y+033029
X+010940Y+034092
X+009940Y+034592
X+008940Y+033531
X+009753Y+032404
X+007440Y+033029
X+006825Y+034092
X+006039Y+031697
X+004859Y+031726
X+004831Y+031302
X+014940Y+033904
X+015940Y+032029
X+017127Y+030904
X+017502Y+031279
X+017940Y+031654
X+018627Y+030529
X+019815Y+030904
X+020628Y+030529
X+021002Y+029717
X+020049Y+029375
X+019065Y+029029
X+022440Y+030154
X+023440Y+030529
X+024440Y+030904
X+025440Y+031967
X+026440Y+032404
X+028065Y+028529
X+031940Y+029029
X+033440Y+029404
X+034377Y+029779
X+035440Y+030154
X+036440Y+032779
X+037877Y+033154
X+038940Y+033531
X+039877Y+033904
X+040877Y+028529
X+044815Y+029029
X+045940Y+029404
X+047440Y+029779
X+048416Y+030188
X+048940Y+029029
X+050002Y+029404
X+051377Y+029779
X+052502Y+030217
X+053440Y+028467
X+048404Y+024717
X+047404Y+025092
X+046377Y+025467
X+045440Y+025842
X+047940Y+021342
X+046554Y+018971
X+046511Y+018322
X+046684Y+017846
X+047137Y+017279
X+046597Y+016849
X+045065Y+016592
X+044877Y+018342
X+045003Y+018967
X+044940Y+019592
X+043627Y+018967
X+038880Y+018546
X+037877Y+018477
X+037511Y+018475
X+037083Y+018484
X+037099Y+018924
X+037499Y+018908
X+037869Y+018905
X+038704Y+020350
X+038303Y+020871
X+035313Y+017885
X+034961Y+017881
X+034591Y+017889
X+034210Y+017887
X+034208Y+016691
X+034589Y+016693
X+034959Y+016685
X+035311Y+016689
X+037413Y+015635
X+037757Y+015652
X+038147Y+015669
X+039940Y+011342
X+040751Y+009342
X+042565Y+012092
X+044190Y+011342
X+045190Y+011467
X+046190Y+013092
X+046315Y+013842
X+047190Y+013467
X+048190Y+013092
X+048565Y+013842
X+048940Y+013467
X+047440Y+009967
X+048625Y+009342
X+050003Y+008967
X+045690Y+009342
X+045190Y+008967
X+044190Y+009342
X+044690Y+013467
X+048502Y+018654
X+049889Y+019015
X+050409Y+018322
X+053180Y+017846
X+053565Y+016849
X+048416Y+036342
X+047440Y+037342
X+047690Y+038342
X+028761Y+022067
X+029801Y+019038
X+029804Y+018554
X+029834Y+018126
X+032444Y+018338
X+031815Y+013467
X+030823Y+013092
X+030315Y+013842
X+029315Y+013467
X+029815Y+011467
X+028815Y+011342
X+027190Y+012092
X+028815Y+009342
X+029815Y+008967
X+030315Y+009342
X+032190Y+009967
X+032877Y+009342
X+034255Y+008967
X+025003Y+009342
X+023940Y+011342
X+020440Y+013092
X+017440Y+016342
X+015440Y+016842
X+013940Y+013842
X+014565Y+013092
X+015565Y+013467
X+013565Y+011467
X+012565Y+011092
X+012565Y+009342
X+013565Y+008967
X+014065Y+009342
X+015940Y+009967
X+017129Y+009342
X+018507Y+008967
X+010815Y+012092
X+007940Y+011092
X+009255Y+009342
X+024377Y+024154
X+023253Y+025342
X+022002Y+034592
T02
X+017565Y+011342
X+018565Y+011342
X+019565Y+011342
X+020565Y+011342
X+020440Y+014342
X+019440Y+014342
X+018440Y+014342
X+018440Y+015342
X+019440Y+015342
X+020440Y+015342
X+021440Y+015342
X+021440Y+014342
X+022440Y+014342
X+022440Y+015342
X+017440Y+015342
X+017440Y+014342
X+016440Y+014342
X+015440Y+014342
X+015440Y+015342
X+016440Y+015342
X+014440Y+015342
X+014440Y+014342
X+013440Y+014342
X+012440Y+014342
X+012440Y+015342
X+013440Y+015342
X+011440Y+015342
X+011440Y+014342
X+010440Y+014342
X+009440Y+014342
X+009440Y+015342
X+010440Y+015342
X+008440Y+015342
X+008440Y+014342
X+007440Y+014342
X+006440Y+014342
X+006440Y+015342
X+007440Y+015342
X+005440Y+015342
X+005440Y+014342
X+004440Y+014342
X+004440Y+015342
X+004440Y+024342
X+004440Y+025342
X+005440Y+025342
X+005440Y+024342
X+006440Y+024342
X+007440Y+024342
X+008440Y+024342
X+008440Y+025342
X+007440Y+025342
X+006440Y+025342
X+006440Y+027342
X+007440Y+027342
X+008440Y+027342
X+009440Y+027342
X+010440Y+027342
X+011440Y+027342
X+012440Y+027342
X+013440Y+027342
X+014440Y+027342
X+015440Y+027342
X+016440Y+027342
X+016440Y+025342
X+016440Y+024342
X+015440Y+024342
X+015440Y+025342
X+014440Y+025342
X+014440Y+024342
X+013440Y+024342
X+012440Y+024342
X+012440Y+025342
X+013440Y+025342
X+011440Y+025342
X+010440Y+025342
X+009440Y+025342
X+009440Y+024342
X+010440Y+024342
X+011440Y+024342
X+017440Y+024342
X+017440Y+025342
X+018440Y+025342
X+018440Y+024342
X+019440Y+024342
X+019440Y+025342
X+020440Y+025342
X+020440Y+024342
X+021440Y+024342
X+022440Y+024342
X+022440Y+025342
X+021440Y+025342
X+021440Y+027342
X+022440Y+027342
X+023440Y+027342
X+024440Y+027342
X+025440Y+027342
X+026440Y+027342
X+027440Y+027342
X+028440Y+027342
X+029440Y+027342
X+031440Y+027342
X+032440Y+027342
X+033440Y+027342
X+034440Y+027342
X+035440Y+027342
X+036440Y+027342
X+037440Y+027342
X+038440Y+027342
X+039440Y+027342
X+040440Y+027342
X+041440Y+027342
X+042440Y+027342
X+044404Y+027342
X+045404Y+027342
X+046404Y+027342
X+047404Y+027342
X+048404Y+027342
X+049404Y+027342
X+050404Y+027342
X+051404Y+027342
X+052404Y+027342
X+053404Y+027342
X+054404Y+027342
X+055404Y+027342
X+040440Y+025342
X+040440Y+024342
X+040440Y+023342
X+040440Y+022342
X+040440Y+021342
X+040440Y+020342
X+040440Y+019342
X+040440Y+018342
X+040440Y+017342
X+040440Y+016342
X+040440Y+015342
X+040440Y+014342
X+036815Y+011342
X+035815Y+011342
X+034815Y+011342
X+033815Y+011342
X+029690Y+015043
X+028690Y+015043
X+027690Y+015043
X+020440Y+027342
X+019440Y+027342
X+018440Y+027342
X+013940Y+035842
X+013940Y+036842
X+012940Y+036842
X+012940Y+035842
X+011940Y+035842
X+010940Y+035842
X+010940Y+036842
X+011940Y+036842
X+009940Y+036842
X+009940Y+035842
X+005440Y+027342
X+048565Y+011342
X+049565Y+011342
X+050565Y+011342
X+051565Y+011342
T03
X+004879Y+021758
X+004879Y+018608
T04
X+051690Y+034342
X+052690Y+034342
X+052690Y+035342
X+051690Y+035342
X+051690Y+036342
X+052690Y+036342
X+052690Y+037342
X+051690Y+037342
X+051690Y+038342
X+052690Y+038342
X+052690Y+039342
X+051690Y+039342
T05
X+007877Y+006893
X+009255Y+006893
X+010633Y+006893
X+012011Y+006893
X+015751Y+006893
X+017129Y+006893
X+018507Y+006893
X+019885Y+006893
X+023625Y+006916
X+025003Y+006916
X+026381Y+006916
X+027759Y+006916
X+031499Y+006916
X+032877Y+006916
X+034255Y+006916
X+035633Y+006916
X+039373Y+006916
X+040751Y+006916
X+042129Y+006916
X+043507Y+006916
X+047247Y+006916
X+048625Y+006916
X+050003Y+006916
X+051381Y+006916
T06
X+054440Y+009404
X+054440Y+011373
T07
X+006019Y+038759
X+019019Y+038759
X+032019Y+038759
X+044983Y+038759
X+051857Y+024763
T08
X+055318Y+005318
X+055318Y+041932
X+005318Y+041932
X+005318Y+005318
T00
M30
